<svg width="731" height="462" viewBox="0 0 731 462" fill="none" xmlns="http://www.w3.org/2000/svg">
<path d="M717.781 205.296C698.417 176.945 657.379 161.754 656.312 119.261C655.621 91.6507 667.568 76.6877 648.448 53.1201C602.225 -3.84924 530.994 -10.5237 470.171 13.2755C409.37 37.0681 360.781 84.7577 293.182 81.8819C256.37 80.3168 222.166 61.9954 185.725 58.5555C174.499 57.4958 164.01 58.4055 154.202 61.0401C117.432 70.9197 84.9661 108.012 72.7389 149.22C62.8299 182.625 75.4908 215.603 59.9279 248.316C43.3412 283.185 10.6798 307.402 2.44998 347.657C-7.4264 395.973 30.3086 437.986 70.8477 439.3C96.6489 440.134 144.475 435.814 166.397 419.117C193.088 398.787 219.319 397.45 250.435 398.229C309.651 399.713 368.864 413.684 427.313 423.636C477.4 432.162 526.765 444.787 577.523 446.388C614.802 447.565 646.436 448.094 666.609 405.634C690.715 354.883 758.395 264.766 717.781 205.296Z" fill="url(#paint0_linear_81_189)"/>
<path d="M193.626 460.363C194.607 460.363 195.354 459.486 195.191 458.518C193.564 448.896 184.03 404.887 145.64 404.535C111.625 404.225 90.9854 421.216 83.7925 428.4C82.5078 429.684 83.0784 431.882 84.8293 432.364C89.4724 433.643 97.2033 436.75 102.166 443.949C109.646 454.807 129.037 453.102 141.117 438.178C153.084 423.395 182.899 414.539 192.074 459.088C192.221 459.825 192.87 460.363 193.626 460.363Z" fill="#BDD0FB"/>
<path d="M116.356 243.018C115.622 241.407 113.262 241.609 112.802 243.318C108.635 258.816 100.03 305.077 138.059 326.969C184.141 353.497 185.253 341.498 190.998 388.209C195.944 428.413 197.63 452.861 198.005 458.893C198.057 459.721 198.742 460.363 199.573 460.363C200.46 460.363 201.174 459.633 201.142 458.743C200.708 446.085 197.542 362.438 188.494 321.523C172.403 248.753 134.726 283.4 116.356 243.018Z" fill="#91B3FA"/>
<path d="M145.118 127.886C144.828 126.249 142.461 126.285 142.216 127.932C140.99 136.191 138.656 146.732 134.283 153.615C126.167 166.387 111.423 212.893 151.903 236.079C192.384 259.266 202.338 271.538 202.035 316.065C201.761 356.761 204.21 443.604 204.634 458.244C204.666 459.424 205.635 460.36 206.818 460.36C208.022 460.36 209 459.388 209.003 458.185C209.059 439.14 209.326 300.701 205.853 267.156C200.353 214.002 155.529 186.772 145.118 127.886Z" fill="#91B3FA"/>
<path d="M164.134 19.1609C164.215 17.2698 166.726 16.6796 167.655 18.3295C172.148 26.2886 182.266 39.8658 202.508 49.6933C232.874 64.4345 287.365 94.9211 254.87 161.529C221.087 230.774 233.079 279.139 230.751 303.355C228.596 325.779 226.326 441.321 226 458.286C225.977 459.444 225.032 460.367 223.874 460.367C222.678 460.367 221.719 459.382 221.748 458.189C222.221 439.476 225.563 306.071 225.622 284.714C225.687 261.737 231.371 183.108 210.832 154.43C190.972 126.686 160.974 91.0932 164.134 19.1609Z" fill="#BDD0FB"/>
<path d="M145.806 163.071C145.392 164.372 145.076 165.82 144.864 167.232C144.733 167.939 144.668 168.656 144.596 169.374C144.502 170.088 144.498 170.808 144.466 171.526C144.41 174.395 144.551 177.277 145.141 180.085C146.246 185.709 148.724 190.995 152.04 195.664C152.461 196.244 152.846 196.851 153.296 197.412L154.698 199.052L156.1 200.695L157.603 202.273C159.641 204.354 161.799 206.333 164.01 208.276C168.431 212.159 173.074 215.893 177.447 219.998C181.836 224.077 185.941 228.557 189.391 233.52C191.096 236.014 192.658 238.606 194.066 241.277L195.067 243.305L195.563 244.322L196.016 245.359L196.919 247.429L197.731 249.536C198.298 250.931 198.726 252.373 199.218 253.794C199.668 255.226 200.072 256.673 200.48 258.118C200.829 259.575 201.21 261.026 201.507 262.497C201.784 263.967 202.13 265.428 202.345 266.908C203.346 272.807 203.91 278.761 204.138 284.714C204.155 285.151 203.815 285.517 203.379 285.533C202.951 285.549 202.593 285.22 202.56 284.799C201.683 273.048 199.772 261.294 195.462 250.413L194.643 248.382L193.737 246.389L193.284 245.395L192.788 244.42L191.794 242.477C190.395 239.924 188.856 237.452 187.177 235.075C185.465 232.724 183.639 230.455 181.692 228.286C179.749 226.115 177.656 224.067 175.51 222.075C171.213 218.084 166.586 214.403 162.073 210.49C159.82 208.534 157.593 206.515 155.467 204.37L153.896 202.736L152.419 200.989L150.941 199.241C150.465 198.644 150.058 197.995 149.611 197.373C146.106 192.381 143.537 186.613 142.591 180.541L142.281 178.262C142.196 177.502 142.183 176.733 142.131 175.97C142.066 175.207 142.086 174.441 142.102 173.678C142.112 172.912 142.138 172.149 142.229 171.389C142.307 170.629 142.356 169.866 142.496 169.116C142.614 168.363 142.728 167.61 142.907 166.863C143.217 165.357 143.641 163.922 144.244 162.438C144.417 162.011 144.906 161.806 145.333 161.979C145.741 162.145 145.946 162.592 145.816 163.006L145.806 163.071Z" fill="#BDD0FB"/>
<path d="M117.269 251.489C117.716 254.094 118.629 256.696 119.799 259.099C121.003 261.499 122.401 263.794 124.041 265.91C127.312 270.149 131.404 273.7 135.871 276.661C138.082 278.2 140.465 279.406 142.855 280.72L146.543 282.686C147.759 283.365 148.952 284.092 150.156 284.796C154.919 287.698 159.514 290.926 163.733 294.617C167.91 298.354 171.738 302.488 175.073 306.994L177.453 310.46C177.867 311.024 178.194 311.647 178.552 312.25L179.609 314.063L180.665 315.876L181.588 317.757C182.191 319.019 182.837 320.258 183.401 321.536C184.405 324.142 185.572 326.685 186.332 329.372C186.749 330.702 187.193 332.023 187.555 333.366L188.513 337.425L188.993 339.453L189.342 341.508L190.026 345.613C190.277 346.976 190.343 348.365 190.496 349.741L190.897 353.872C190.926 354.169 190.708 354.433 190.411 354.462C190.124 354.491 189.87 354.289 189.827 354.009L189.821 353.973C189.394 351.263 189.048 348.541 188.566 345.851L187.734 341.834L187.313 339.828L186.766 337.856L185.673 333.914C185.269 332.613 184.773 331.341 184.346 330.05C183.544 327.445 182.348 324.996 181.314 322.485C180.734 321.259 180.078 320.069 179.465 318.859L178.529 317.056L177.463 315.325L176.4 313.594C176.038 313.02 175.715 312.426 175.298 311.888L172.924 308.598C169.608 304.324 165.911 300.359 161.829 296.801C157.697 293.303 153.269 290.153 148.617 287.349C147.44 286.671 146.279 285.963 145.089 285.305L141.482 283.394C139.05 282.044 136.533 280.72 134.231 279.087C129.581 275.898 125.365 271.969 122.14 267.296C121.374 266.1 120.585 264.926 119.949 263.654C119.61 263.035 119.271 262.412 119.001 261.756C118.73 261.101 118.407 260.475 118.185 259.8C117.69 258.476 117.259 257.13 116.937 255.757C116.591 254.384 116.395 252.998 116.343 251.548C116.333 251.293 116.532 251.081 116.787 251.071C117.018 251.062 117.217 251.228 117.256 251.453L117.269 251.489Z" fill="#BDD0FB"/>
<path d="M99.6358 423.424C102.251 421.184 105.091 419.286 108.042 417.545C109.519 416.684 111.025 415.866 112.564 415.112C114.097 414.343 115.658 413.632 117.253 412.993C120.425 411.673 123.709 410.619 127.051 409.768C130.4 408.95 133.823 408.409 137.27 408.118C140.716 407.825 144.195 407.861 147.638 408.249C151.078 408.627 154.496 409.312 157.776 410.407L159.011 410.799L160.218 411.275C161.017 411.601 161.829 411.898 162.614 412.246C164.163 413.003 165.741 413.697 167.199 414.62C170.202 416.296 172.938 418.38 175.543 420.571C175.745 420.74 175.771 421.04 175.601 421.239C175.445 421.425 175.174 421.461 174.975 421.33L174.953 421.314C172.162 419.449 169.39 417.581 166.364 416.185C164.897 415.406 163.329 414.845 161.812 414.186C161.04 413.89 160.247 413.648 159.468 413.378L158.294 412.983L157.097 412.667C153.931 411.728 150.658 411.242 147.384 410.955C146.562 410.906 145.747 410.799 144.922 410.799L142.454 410.76C140.808 410.818 139.161 410.861 137.521 411.03C130.947 411.607 124.498 413.313 118.264 415.582C112.036 417.874 105.965 420.763 100.213 424.183L100.193 424.197C99.9684 424.33 99.675 424.255 99.5413 424.03C99.4141 423.825 99.463 423.57 99.6358 423.424Z" fill="url(#paint1_linear_81_189)"/>
<path d="M176.345 39.1095C178.781 41.7505 181.34 44.3003 183.893 46.8241C186.469 49.3347 189.068 51.8193 191.745 54.2126C194.379 56.6515 197.108 58.9829 199.851 61.2946C201.204 62.4717 202.619 63.5738 203.998 64.715C205.384 65.8497 206.825 66.9126 208.224 68.031C209.636 69.1331 211.083 70.1863 212.508 71.2656C213.946 72.3318 215.423 73.3393 216.881 74.3762C219.848 76.4467 222.831 78.6443 225.626 81.0376C231.227 85.8111 236.278 91.4194 239.956 97.9112C241.795 101.146 243.334 104.553 244.495 108.081C245.656 111.606 246.494 115.225 247.035 118.874C248.098 126.184 248.016 133.569 247.27 140.827C246.52 148.092 245.069 155.239 243.22 162.256C241.371 169.273 239.167 176.179 236.64 182.958C236.568 183.153 236.353 183.251 236.157 183.179C235.972 183.111 235.874 182.905 235.929 182.716C240.132 168.934 243.621 154.864 244.739 140.599C244.844 138.816 244.987 137.035 245.007 135.255C245.023 134.365 245.072 133.475 245.062 132.585L245.023 129.917C244.889 126.37 244.648 122.822 244.025 119.343C243.425 115.864 242.607 112.431 241.456 109.111C240.315 105.792 238.821 102.603 237.051 99.5872C233.503 93.5453 228.775 88.2403 223.366 83.695C220.666 81.3963 217.81 79.3323 214.862 77.2618C213.389 76.1891 211.892 75.1489 210.441 74.0501C209 72.9382 207.536 71.8525 206.111 70.7178C203.274 68.4353 200.503 66.0747 197.793 63.6488C196.443 62.4293 195.106 61.1968 193.805 59.9284L191.843 58.0373L189.919 56.107C187.382 53.505 184.891 50.8607 182.534 48.0989C180.157 45.3535 177.871 42.5364 175.758 39.5692C175.637 39.3997 175.676 39.1649 175.846 39.0442C176.003 38.9334 176.214 38.9595 176.338 39.0964L176.345 39.1095Z" fill="url(#paint2_linear_81_189)"/>
<path d="M537.714 460.363C536.733 460.363 535.986 459.486 536.149 458.518C537.776 448.896 547.31 404.887 585.701 404.535C619.715 404.225 640.355 421.216 647.548 428.4C648.833 429.684 648.262 431.882 646.511 432.364C641.868 433.643 634.137 436.75 629.174 443.949C621.695 454.807 602.304 453.102 590.223 438.178C578.257 423.395 548.442 414.539 539.267 459.088C539.12 459.825 538.471 460.363 537.714 460.363Z" fill="#BDD0FB"/>
<path d="M614.984 243.018C615.718 241.407 618.078 241.609 618.538 243.318C622.705 258.816 631.31 305.077 593.282 326.969C547.199 353.497 546.088 341.498 540.342 388.209C535.396 428.413 533.71 452.861 533.335 458.893C533.283 459.721 532.598 460.363 531.767 460.363C530.88 460.363 530.166 459.633 530.199 458.743C530.632 446.085 533.798 362.438 542.846 321.523C558.938 248.753 596.614 283.4 614.984 243.018Z" fill="#91B3FA"/>
<path d="M586.222 127.886C586.513 126.249 588.88 126.285 589.124 127.932C590.35 136.191 592.685 146.732 597.057 153.615C605.173 166.387 619.917 212.893 579.437 236.079C538.957 259.266 529.002 271.538 529.305 316.065C529.579 356.761 527.13 443.604 526.707 458.244C526.674 459.424 525.706 460.36 524.522 460.36C523.319 460.36 522.341 459.388 522.337 458.185C522.282 439.14 522.015 300.701 525.487 267.156C530.988 214.002 575.811 186.772 586.222 127.886Z" fill="#BDD0FB"/>
<path d="M567.207 19.1609C567.125 17.2698 564.614 16.6796 563.685 18.3295C559.192 26.2886 549.074 39.8658 528.833 49.6933C498.467 64.4345 443.975 94.9211 476.47 161.529C510.254 230.774 498.261 279.139 500.589 303.355C502.744 325.779 505.014 441.321 505.34 458.286C505.363 459.444 506.308 460.367 507.466 460.367C508.662 460.367 509.621 459.382 509.592 458.189C509.119 439.476 505.777 306.071 505.718 284.714C505.653 261.737 499.97 183.108 520.505 154.43C540.369 126.686 570.366 91.0932 567.207 19.1609Z" fill="#91B3FA"/>
<path d="M587.086 162.442C587.693 163.925 588.113 165.36 588.423 166.866C588.603 167.61 588.717 168.363 588.834 169.119C588.974 169.873 589.026 170.632 589.101 171.392C589.193 172.152 589.216 172.915 589.229 173.681C589.245 174.444 589.264 175.21 589.199 175.973C589.147 176.736 589.134 177.506 589.049 178.265L588.74 180.545C587.794 186.616 585.225 192.384 581.719 197.376C581.276 197.995 580.865 198.647 580.389 199.244L578.915 200.992L577.438 202.74L575.867 204.373C573.741 206.515 571.517 208.534 569.261 210.493C564.748 214.406 560.121 218.09 555.824 222.078C553.675 224.074 551.585 226.118 549.642 228.29C547.695 230.458 545.869 232.727 544.157 235.078C542.478 237.452 540.939 239.923 539.54 242.48L538.546 244.423L538.05 245.398L537.597 246.393L536.69 248.385L535.872 250.416C531.562 261.297 529.651 273.051 528.774 284.802C528.744 285.236 528.366 285.565 527.933 285.533C527.509 285.503 527.186 285.138 527.199 284.714C527.427 278.761 527.991 272.81 528.992 266.908C529.211 265.428 529.556 263.97 529.83 262.497C530.127 261.029 530.512 259.578 530.857 258.118C531.265 256.673 531.669 255.226 532.119 253.794C532.611 252.376 533.039 250.931 533.606 249.536L534.418 247.429L535.321 245.359L535.774 244.322L536.27 243.305L537.271 241.277C538.679 238.606 540.238 236.014 541.947 233.52C545.4 228.557 549.505 224.077 553.89 219.998C558.266 215.893 562.906 212.159 567.327 208.276C569.538 206.336 571.696 204.354 573.734 202.273L575.237 200.695L576.639 199.052L578.041 197.412C578.491 196.851 578.876 196.244 579.297 195.664C582.613 190.995 585.091 185.713 586.196 180.085C586.786 177.277 586.927 174.395 586.871 171.526C586.839 170.808 586.835 170.085 586.741 169.374C586.669 168.656 586.604 167.939 586.473 167.232C586.258 165.82 585.945 164.369 585.531 163.071L585.512 163.012C585.371 162.572 585.613 162.103 586.053 161.962C586.477 161.825 586.923 162.041 587.086 162.442Z" fill="url(#paint3_linear_81_189)"/>
<path d="M614.991 251.534C614.939 252.989 614.746 254.371 614.397 255.744C614.075 257.12 613.644 258.463 613.149 259.787C612.927 260.462 612.601 261.088 612.333 261.743C612.063 262.399 611.724 263.022 611.385 263.641C610.749 264.91 609.96 266.087 609.193 267.283C605.969 271.952 601.749 275.881 597.103 279.074C594.801 280.707 592.284 282.031 589.852 283.381L586.245 285.292C585.055 285.95 583.894 286.654 582.717 287.336C578.064 290.137 573.637 293.287 569.505 296.788C565.423 300.346 561.726 304.311 558.41 308.585L556.036 311.875C555.622 312.41 555.296 313.007 554.934 313.581L553.871 315.312L552.805 317.043L551.869 318.846C551.256 320.056 550.6 321.246 550.02 322.472C548.986 324.983 547.79 327.432 546.988 330.037C546.56 331.328 546.065 332.6 545.661 333.901L544.568 337.843L544.02 339.815L543.603 341.821L542.772 345.838C542.289 348.528 541.943 351.25 541.516 353.96L541.51 353.996C541.464 354.289 541.187 354.491 540.894 354.446C540.61 354.4 540.414 354.143 540.44 353.862L540.841 349.731C540.995 348.355 541.06 346.966 541.311 345.603L541.996 341.498L542.345 339.444L542.824 337.416L543.782 333.356C544.144 332.013 544.588 330.692 545.005 329.362C545.765 326.675 546.932 324.132 547.936 321.527C548.504 320.252 549.146 319.009 549.749 317.748L550.672 315.866L551.729 314.053L552.785 312.24C553.144 311.641 553.47 311.018 553.884 310.45L556.264 306.984C559.6 302.478 563.428 298.344 567.604 294.607C571.824 290.916 576.418 287.688 581.182 284.786C582.388 284.085 583.578 283.358 584.794 282.677L588.482 280.71C590.872 279.4 593.256 278.193 595.466 276.651C599.933 273.69 604.025 270.143 607.296 265.901C608.936 263.785 610.335 261.492 611.538 259.089C612.708 256.686 613.618 254.084 614.068 251.479L614.078 251.43C614.12 251.179 614.358 251.013 614.609 251.055C614.841 251.107 615.001 251.31 614.991 251.534Z" fill="#BDD0FB"/>
<path d="M631.131 424.18C625.379 420.76 619.311 417.871 613.08 415.579C606.846 413.31 600.396 411.604 593.823 411.027C592.183 410.858 590.536 410.815 588.89 410.756L586.421 410.796C585.596 410.796 584.781 410.903 583.96 410.952C580.686 411.239 577.409 411.725 574.246 412.664L573.05 412.98L571.876 413.375C571.096 413.645 570.304 413.887 569.531 414.183C568.015 414.842 566.45 415.403 564.98 416.182C561.954 417.578 559.179 419.446 556.391 421.311L556.372 421.324C556.153 421.471 555.856 421.412 555.713 421.194C555.576 420.992 555.622 420.721 555.801 420.564C558.406 418.376 561.142 416.29 564.145 414.614C565.602 413.691 567.177 412.996 568.729 412.24C569.515 411.891 570.327 411.594 571.126 411.268L572.332 410.792L573.568 410.401C576.848 409.305 580.265 408.621 583.705 408.243C587.148 407.855 590.627 407.819 594.074 408.112C597.52 408.399 600.941 408.944 604.293 409.762C607.635 410.613 610.918 411.666 614.091 412.987C615.685 413.629 617.247 414.337 618.78 415.106C620.319 415.859 621.825 416.678 623.302 417.539C626.253 419.28 629.09 421.177 631.708 423.417C631.907 423.587 631.93 423.89 631.76 424.089C631.607 424.268 631.349 424.304 631.157 424.19L631.131 424.18Z" fill="url(#paint4_linear_81_189)"/>
<path d="M555.586 39.5756C553.473 42.5428 551.187 45.3599 548.81 48.1054C546.453 50.8671 543.962 53.5114 541.425 56.1134L539.501 58.0437L537.538 59.9348C536.237 61.2032 534.897 62.4357 533.551 63.6552C530.841 66.0811 528.07 68.4418 525.233 70.7242C523.808 71.8589 522.347 72.9447 520.903 74.0565C519.448 75.1553 517.952 76.1955 516.481 77.2682C513.534 79.3387 510.677 81.4027 507.978 83.7014C502.568 88.2499 497.84 93.5517 494.293 99.5936C492.522 102.613 491.029 105.799 489.888 109.118C488.737 112.437 487.922 115.871 487.318 119.35C486.692 122.829 486.454 126.376 486.321 129.924L486.282 132.591C486.269 133.481 486.321 134.371 486.337 135.261C486.357 137.042 486.5 138.822 486.604 140.605C487.726 154.871 491.212 168.937 495.415 182.723C495.476 182.922 495.366 183.13 495.167 183.192C494.978 183.251 494.775 183.15 494.704 182.964C492.177 176.185 489.969 169.279 488.124 162.262C486.275 155.246 484.824 148.098 484.074 140.834C483.327 133.576 483.246 126.19 484.309 118.88C484.847 115.228 485.688 111.612 486.849 108.087C488.01 104.559 489.549 101.152 491.388 97.9176C495.062 91.429 500.116 85.8175 505.718 81.044C508.512 78.6507 511.496 76.4531 514.463 74.3826C515.917 73.3424 517.398 72.3349 518.835 71.272C520.264 70.1927 521.711 69.1395 523.12 68.0374C524.519 66.9191 525.96 65.8561 527.346 64.7214C528.725 63.5802 530.14 62.4781 531.493 61.301C534.235 58.9925 536.961 56.6579 539.599 54.219C542.276 51.8257 544.875 49.3411 547.451 46.8305C550.007 44.3035 552.563 41.757 554.999 39.1159L555.005 39.1093C555.146 38.9561 555.384 38.9463 555.537 39.0865C555.674 39.2104 555.693 39.4224 555.586 39.5756Z" fill="#BDD0FB"/>
<path d="M367.312 10.9832C379.758 10.9147 391.392 17.55 397.672 28.2905L450.425 118.541L411.669 141.192L370.882 71.4087C370.211 70.2577 368.972 69.5469 367.632 69.5567C366.298 69.5632 365.062 70.2838 364.404 71.4446L321.618 146.474L282.703 124.286C282.703 124.286 282.791 124.325 282.8 124.315L282.853 124.224L323.261 53.1689L337.191 28.6426C343.353 17.8305 354.873 11.0484 367.312 10.9832Z" fill="url(#paint5_linear_81_189)"/>
<path d="M393.27 145.261L463.265 104.351L455.45 171.314L393.27 145.261Z" fill="url(#paint6_linear_81_189)"/>
<path d="M376.478 80.9916L370.879 71.4119C370.208 70.2609 368.969 69.5501 367.628 69.5599C366.295 69.5664 365.059 70.287 364.4 71.4478L321.615 146.478L282.703 124.286C282.703 124.286 282.791 124.325 282.8 124.315L282.853 124.224L323.261 53.1688C353.572 30.4717 376.478 80.9916 376.478 80.9916Z" fill="url(#paint7_linear_81_189)"/>
<path d="M532.644 291.937C526.544 302.785 515.021 309.609 502.581 309.749L398.053 310.923L397.551 266.034L478.375 265.128C479.708 265.112 480.938 264.388 481.593 263.22C482.248 262.06 482.232 260.628 481.551 259.481L437.529 185.171L476.069 162.341C476.069 162.341 475.991 162.399 475.998 162.409L476.05 162.497L517.795 232.776L532.214 257.019C538.549 267.73 538.742 281.095 532.644 291.937Z" fill="url(#paint8_linear_81_189)"/>
<path d="M403.117 248.036L404.026 329.108L349.705 289.178L403.117 248.036Z" fill="url(#paint9_linear_81_189)"/>
<path d="M467.275 265.252L478.368 265.128C479.702 265.112 480.931 264.388 481.586 263.22C482.242 262.06 482.225 260.628 481.544 259.481L437.522 185.171L476.063 162.341C476.063 162.341 475.985 162.399 475.991 162.409L476.043 162.497L517.789 232.776C522.51 270.351 467.275 265.252 467.275 265.252Z" fill="url(#paint10_linear_81_189)"/>
<path d="M200.118 293.228C193.805 282.504 193.698 269.109 199.828 258.284L251.352 167.326L290.411 189.453L250.572 259.781C249.914 260.941 249.924 262.37 250.605 263.521C251.28 264.668 252.526 265.376 253.859 265.363L340.226 264.655L340.591 309.449C340.591 309.449 340.582 309.352 340.569 309.352H340.464L258.724 310.118L230.52 310.398C218.074 310.499 206.424 303.949 200.118 293.228Z" fill="url(#paint11_linear_81_189)"/>
<path d="M303.172 203.313L232.626 163.351L294.45 136.461L303.172 203.313Z" fill="url(#paint12_linear_81_189)"/>
<path d="M256.041 250.126L250.573 259.781C249.914 260.941 249.924 262.37 250.605 263.521C251.28 264.668 252.526 265.376 253.859 265.363L340.226 264.655L340.591 309.449C340.591 309.449 340.582 309.352 340.569 309.352H340.464L258.724 310.118C223.871 295.315 256.041 250.126 256.041 250.126Z" fill="url(#paint13_linear_81_189)"/>
<path d="M447.787 461.068C448.631 461.068 449.316 460.396 449.316 459.568V280.293C449.316 279.465 448.631 278.793 447.787 278.793C446.942 278.793 446.258 279.465 446.258 280.293V459.564C446.261 460.396 446.942 461.068 447.787 461.068Z" fill="#7D97F4"/>
<path d="M489.187 461.068C490.031 461.068 490.716 460.396 490.716 459.568V280.293C490.716 279.465 490.031 278.793 489.187 278.793C488.342 278.793 487.661 279.465 487.661 280.293V459.564C487.658 460.396 488.342 461.068 489.187 461.068Z" fill="#7D97F4"/>
<path d="M590.895 461.068C591.094 461.068 591.296 461.028 591.492 460.947C592.268 460.624 592.63 459.744 592.3 458.981L514.183 278.571C513.853 277.808 512.953 277.456 512.181 277.779C511.405 278.102 511.043 278.982 511.372 279.745L589.49 460.155C589.737 460.725 590.301 461.068 590.895 461.068Z" fill="#7D97F4"/>
<path d="M542.641 461.068C542.84 461.068 543.042 461.028 543.238 460.947C544.014 460.624 544.376 459.744 544.047 458.981L465.929 278.571C465.6 277.808 464.7 277.456 463.927 277.779C463.151 278.102 462.789 278.982 463.118 279.745L541.236 460.155C541.484 460.725 542.048 461.068 542.641 461.068Z" fill="#7D97F4"/>
<path d="M445.416 280.808H516.977C518.167 280.808 519.129 279.863 519.129 278.695C519.129 277.528 518.164 276.583 516.977 276.583H445.416C444.226 276.583 443.264 277.528 443.264 278.695C443.261 279.859 444.226 280.808 445.416 280.808Z" fill="#7D97F4"/>
<path d="M476.324 308.243H524.721C525.565 308.243 526.25 307.571 526.25 306.743C526.25 305.915 525.565 305.243 524.721 305.243H476.324C475.479 305.243 474.794 305.915 474.794 306.743C474.798 307.571 475.479 308.243 476.324 308.243Z" fill="#7D97F4"/>
<path d="M539.57 339.362H491.173V342.362H539.57V339.362Z" fill="#7D97F4"/>
<path d="M553.946 373.484H505.549V376.484H553.946V373.484Z" fill="#7D97F4"/>
<path d="M520.625 410.603H569.023C569.867 410.603 570.552 409.932 570.552 409.103C570.552 408.275 569.867 407.604 569.023 407.604H520.625C519.781 407.604 519.096 408.275 519.096 409.103C519.096 409.932 519.781 410.603 520.625 410.603Z" fill="#7D97F4"/>
<path d="M535.2 444.722H583.598C584.442 444.722 585.127 444.05 585.127 443.222C585.127 442.394 584.442 441.722 583.598 441.722H535.2C534.356 441.722 533.671 442.394 533.671 443.222C533.674 444.054 534.356 444.722 535.2 444.722Z" fill="#7D97F4"/>
<path d="M448.338 274.437C451.853 274.74 457.957 275.236 462.769 275.448C465.661 275.575 467.328 275.291 468.286 274.906C468.283 275.014 468.283 275.115 468.276 275.213C468.254 275.718 467.843 276.123 467.331 276.152C458.24 276.661 451.012 276.328 448.436 276.171C447.904 276.139 447.588 275.562 447.859 275.108C447.992 274.88 448.158 274.658 448.338 274.437Z" fill="url(#paint14_linear_81_189)"/>
<path d="M462.766 275.448C457.956 275.236 451.853 274.743 448.334 274.437C451.791 270.195 462.766 267.335 462.766 267.335H465.863C467.996 270.407 468.302 273.331 468.28 274.906C467.324 275.291 465.658 275.575 462.766 275.448Z" fill="url(#paint15_linear_81_189)"/>
<path d="M466.389 262.278L466.098 268.017C466.066 268.64 465.603 269.161 464.98 269.249C464.36 269.337 463.532 269.35 462.652 269.057C462.111 268.878 461.71 268.421 461.608 267.863L460.607 262.278H466.389Z" fill="url(#paint16_linear_81_189)"/>
<path d="M506.641 275.405C508.167 275.193 508.855 274.401 509.145 273.553C509.148 273.56 509.148 273.57 509.151 273.576C509.376 274.469 508.855 275.395 507.815 275.836C506.559 276.367 505.183 276.458 504.117 276.416C502.973 276.37 501.923 275.894 501.345 275.138L501.336 275.125C502.487 275.692 504.097 275.757 506.641 275.405Z" fill="url(#paint17_linear_81_189)"/>
<path d="M499.451 262.242H502.007C505.901 262.164 508.346 270.374 509.145 273.553C508.855 274.401 508.167 275.193 506.641 275.405C504.097 275.761 502.487 275.692 501.336 275.125C499.233 272.357 498.189 268.304 497.687 265.94C497.12 263.247 499.451 262.242 499.451 262.242Z" fill="url(#paint18_linear_81_189)"/>
<path d="M501.678 256.915L503.096 262.559C503.269 263.25 502.94 263.967 502.301 264.293C501.508 264.701 500.39 265.128 499.363 265.004C498.88 264.945 498.479 264.606 498.32 264.15L496.236 258.212L501.678 256.915Z" fill="url(#paint19_linear_81_189)"/>
<path d="M503.37 258.545C501.603 260.11 495.861 260.319 495.861 260.319C475.173 210.666 466.711 203.613 466.711 203.613C469.698 222.355 467.194 263.843 467.194 263.843C463.78 265.35 459.378 263.843 459.378 263.843C459.101 233.161 454.386 206.404 448.814 185.312C462.795 184.999 470.233 180.212 472.659 178.292C484.315 197.082 503.37 258.545 503.37 258.545Z" fill="url(#paint20_linear_81_189)"/>
<path d="M469.111 121.192C471.759 134.394 470.81 158.02 470.187 168.797C470.011 171.826 472.127 176.025 473.836 178.888C474.103 179.338 473.937 179.912 473.474 180.153C470.611 181.624 460.917 186.182 449.684 186.749C448.934 186.789 448.266 186.277 448.074 185.553C439.74 154.434 430.059 134.55 430.059 134.55C440.741 117.484 469.111 121.192 469.111 121.192Z" fill="url(#paint21_linear_81_189)"/>
<path d="M465.299 202.44C465.417 202.44 465.537 202.407 465.645 202.342C465.958 202.149 466.056 201.745 465.867 201.432C465.756 201.249 463.079 196.923 457.663 194.311C457.334 194.154 456.939 194.288 456.779 194.621C456.62 194.95 456.76 195.348 457.089 195.504C462.137 197.94 464.709 202.081 464.735 202.12C464.859 202.325 465.078 202.44 465.299 202.44Z" fill="url(#paint22_linear_81_189)"/>
<path d="M485.711 159.08C484.86 165.229 482.349 171.937 477.325 179.061L475.414 177.502C475.414 177.502 477.618 168.555 476.366 158.405C479.464 157.802 483.125 158.425 485.711 159.08Z" fill="url(#paint23_linear_81_189)"/>
<path d="M466.154 137.482L469.111 121.195C469.111 121.195 488.861 136.292 485.711 159.08C483.125 158.425 479.467 157.802 476.366 158.408C475.463 151.092 472.766 143.155 466.154 137.482Z" fill="url(#paint24_linear_81_189)"/>
<path d="M432.237 131.358L439.12 148.147C433.277 156.25 418.464 158.721 412.637 157.404C414.493 153.27 415.246 149.52 415.53 146.797C425.602 143.683 432.237 131.358 432.237 131.358Z" fill="url(#paint25_linear_81_189)"/>
<path d="M415.53 146.801C415.246 149.523 414.496 153.273 412.637 157.407C396.347 155.262 398.33 143.204 398.33 143.204L401.053 144.127C406.338 147.789 411.242 148.128 415.53 146.801Z" fill="url(#paint26_linear_81_189)"/>
<path d="M437.079 114.279L440.76 127.807C441.174 129.327 442.818 130.142 444.282 129.558C445.86 128.926 447.862 128.065 449.587 127.136C451.426 126.141 452.003 123.774 450.839 122.039L443.186 110.631L437.079 114.279Z" fill="url(#paint27_linear_81_189)"/>
<path d="M431.617 100.594C431.526 100.81 430.691 116.307 430.691 116.307L439.55 116.597L442.524 102.026C442.524 102.026 433.143 96.9719 431.617 100.594Z" fill="url(#paint28_linear_81_189)"/>
<path d="M439.808 104.735L438.843 112.528C438.83 112.629 438.807 112.724 438.768 112.815C438.53 113.383 437.565 115.28 435.687 114.175C433.981 113.174 432.41 112.284 431.151 112.336C430.587 112.359 430.131 112.809 430.101 113.373C430.026 114.781 429.915 117.957 430.238 120.732C430.303 121.296 430.792 121.71 431.36 121.694C433.068 121.645 436.665 121.443 439.521 120.602C439.909 120.487 440.203 120.174 440.287 119.78C440.705 117.856 441.989 112.02 442.599 110.448C443.173 108.974 445.276 108.55 446.173 108.433C446.466 108.394 446.73 108.241 446.906 108.003C447.526 107.158 448.612 105.117 446.101 103.509C445.576 103.174 445.433 102.476 445.788 101.961C446.489 100.934 447.112 99.2544 445.237 97.748C443.333 96.2188 441.419 96.9492 440.307 97.6567C439.857 97.9436 439.277 97.8523 438.911 97.4643C438.703 97.2426 438.396 97.1089 437.946 97.2459C437.34 97.435 436.707 97.0339 436.583 96.4112C436.342 95.2145 435.586 93.8059 433.378 93.6168C429.462 93.281 427.952 97.3241 428.308 100.017C428.663 102.711 432.928 102.831 435.266 102.13C437.043 101.599 438.781 103.095 439.511 103.842C439.74 104.08 439.85 104.409 439.808 104.735Z" fill="url(#paint29_linear_81_189)"/>
<path d="M442.218 113.285C442.218 113.285 441.803 108.567 443.662 107.924C445.521 107.282 447.721 108.44 446.391 111.433C444.735 115.153 442.218 113.285 442.218 113.285Z" fill="url(#paint30_linear_81_189)"/>
<path d="M476.203 177.232L467.289 176.505L463.428 180.065C463.428 180.065 464.341 181.327 467.197 180.603C470.054 179.876 473.966 179.7 473.966 179.7C473.966 179.7 477.908 181.477 477.957 178.151L476.203 177.232Z" fill="url(#paint31_linear_81_189)"/>
<path d="M208.706 54.3492L206.186 55.9698C205.837 56.1947 205.374 56.0937 205.152 55.748C204.927 55.3992 205.028 54.9362 205.377 54.7112L207.901 53.0874C208.25 52.8624 208.713 52.9635 208.938 53.3124C209.163 53.6613 209.055 54.1243 208.706 54.3492Z" fill="#D8E3FF"/>
<path d="M201.781 58.8196L199.273 60.4564C198.931 60.6814 198.468 60.5869 198.24 60.2445C198.015 59.8989 198.109 59.4359 198.455 59.2109L200.966 57.5675C201.311 57.3425 201.774 57.4371 201.999 57.7827C202.227 58.1284 202.13 58.5914 201.781 58.8196Z" fill="#D8E3FF"/>
<path d="M194.897 63.3421L192.406 65.005C192.067 65.2332 191.604 65.1419 191.376 64.8028C191.148 64.4637 191.239 64.0007 191.578 63.7725L194.072 62.1063C194.415 61.8781 194.874 61.9694 195.103 62.3117C195.331 62.6476 195.24 63.1106 194.897 63.3421Z" fill="#D8E3FF"/>
<path d="M188.06 67.933L185.588 69.6252C185.252 69.8567 184.793 69.772 184.561 69.4361C184.33 69.1003 184.414 68.6373 184.75 68.4058L187.225 66.7102C187.561 66.4787 188.024 66.5668 188.252 66.9026C188.484 67.2385 188.396 67.7015 188.06 67.933Z" fill="#D8E3FF"/>
<path d="M181.285 72.6151L178.839 74.34L178.836 74.3432C178.503 74.578 178.044 74.4965 177.812 74.1671C177.577 73.8346 177.656 73.3781 177.988 73.1433L180.44 71.4119C180.773 71.1772 181.232 71.2554 181.467 71.588C181.702 71.9206 181.624 72.3803 181.291 72.6151H181.285Z" fill="#D8E3FF"/>
<path d="M174.581 77.392L172.165 79.1593L172.161 79.1625C171.835 79.4005 171.376 79.3288 171.138 79.0028C170.9 78.6767 170.971 78.2169 171.297 77.9789L173.72 76.2052C174.046 75.9671 174.506 76.0356 174.744 76.3649C174.982 76.691 174.913 77.1507 174.584 77.3888L174.581 77.392Z" fill="#D8E3FF"/>
<path d="M167.965 82.2895L165.581 84.1024L165.578 84.1056C165.259 84.3502 164.799 84.2882 164.558 83.9654C164.313 83.6459 164.375 83.1861 164.698 82.9449L167.088 81.1254C167.407 80.8809 167.867 80.9428 168.112 81.2624C168.356 81.5819 168.294 82.0417 167.975 82.2862L167.965 82.2895Z" fill="#D8E3FF"/>
<path d="M161.447 87.314L159.106 89.1758L159.103 89.1791C158.79 89.4302 158.333 89.378 158.082 89.0617C157.831 88.7487 157.883 88.2922 158.2 88.0411L160.55 86.1695C160.863 85.9185 161.323 85.9707 161.571 86.2837C161.822 86.5967 161.77 87.0564 161.454 87.3042L161.447 87.314Z" fill="#D8E3FF"/>
<path d="M155.046 92.482L152.751 94.4025L152.744 94.4057C152.438 94.6633 151.981 94.6209 151.727 94.3144C151.469 94.0079 151.512 93.5515 151.818 93.2971L154.123 91.3668C154.43 91.1093 154.886 91.1516 155.144 91.4581C155.402 91.7646 155.359 92.2211 155.053 92.4787L155.046 92.482Z" fill="#D8E3FF"/>
<path d="M148.779 97.8132L146.539 99.7956L146.533 99.8022C146.236 100.066 145.779 100.037 145.519 99.7402C145.255 99.4435 145.284 98.987 145.581 98.7262L147.83 96.7307C148.127 96.4666 148.584 96.4926 148.848 96.7926C149.112 97.0893 149.086 97.5458 148.786 97.8099L148.779 97.8132Z" fill="#D8E3FF"/>
<path d="M142.676 103.324L140.501 105.375L140.494 105.381C140.207 105.652 139.754 105.639 139.48 105.352C139.21 105.065 139.223 104.612 139.51 104.341L141.698 102.277C141.985 102.006 142.441 102.019 142.712 102.306C142.982 102.593 142.969 103.05 142.682 103.32L142.676 103.324Z" fill="#D8E3FF"/>
<path d="M136.757 109.026L134.658 111.152L134.651 111.159C134.374 111.439 133.924 111.442 133.644 111.165C133.363 110.888 133.36 110.438 133.637 110.158L135.75 108.016C136.027 107.735 136.48 107.732 136.761 108.009C137.041 108.286 137.044 108.739 136.767 109.02L136.757 109.026Z" fill="#D8E3FF"/>
<path d="M131.058 114.944L129.046 117.155L129.04 117.165C128.776 117.455 128.326 117.475 128.036 117.21C127.745 116.946 127.726 116.496 127.987 116.209L130.012 113.982C130.276 113.692 130.726 113.669 131.016 113.934C131.306 114.198 131.329 114.648 131.065 114.938L131.058 114.944Z" fill="#D8E3FF"/>
<path d="M125.616 121.097L123.712 123.396L123.705 123.406C123.458 123.705 123.011 123.748 122.711 123.5C122.411 123.252 122.369 122.806 122.616 122.506L124.537 120.187C124.785 119.887 125.231 119.845 125.535 120.093C125.835 120.341 125.877 120.787 125.629 121.09L125.616 121.097Z" fill="#D8E3FF"/>
<path d="M120.481 127.501L118.7 129.894L118.691 129.904C118.459 130.217 118.019 130.282 117.706 130.047C117.393 129.816 117.328 129.376 117.562 129.063L119.359 126.643C119.591 126.33 120.034 126.265 120.344 126.497C120.657 126.728 120.722 127.172 120.49 127.481L120.481 127.501Z" fill="#D8E3FF"/>
<path d="M115.707 134.175L114.074 136.67L114.064 136.683C113.852 137.006 113.418 137.097 113.095 136.885C112.773 136.673 112.681 136.239 112.893 135.917L114.543 133.393C114.755 133.07 115.189 132.979 115.515 133.191C115.841 133.403 115.929 133.836 115.717 134.162L115.707 134.175Z" fill="#D8E3FF"/>
<path d="M111.364 141.127L109.906 143.726L109.897 143.742C109.707 144.078 109.284 144.198 108.948 144.009C108.612 143.82 108.491 143.396 108.68 143.06L110.154 140.429C110.343 140.093 110.767 139.973 111.103 140.162C111.439 140.351 111.559 140.775 111.37 141.111L111.364 141.127Z" fill="#D8E3FF"/>
<path d="M107.526 148.366L106.274 151.065L106.264 151.085C106.104 151.434 105.69 151.584 105.341 151.421C104.993 151.258 104.843 150.847 105.002 150.501L106.271 147.762C106.43 147.413 106.845 147.263 107.193 147.423C107.542 147.583 107.692 147.997 107.533 148.346L107.526 148.366Z" fill="#D8E3FF"/>
<path d="M104.285 155.878L103.271 158.676L103.265 158.698C103.134 159.057 102.74 159.243 102.381 159.113C102.022 158.982 101.837 158.588 101.967 158.229L102.994 155.389C103.124 155.03 103.519 154.844 103.881 154.975C104.24 155.105 104.425 155.503 104.295 155.862L104.285 155.878Z" fill="#D8E3FF"/>
<path d="M101.726 163.648L100.982 166.527L100.976 166.55C100.881 166.918 100.506 167.137 100.138 167.042C99.7695 166.948 99.551 166.573 99.6456 166.204L100.399 163.276C100.493 162.908 100.868 162.686 101.237 162.781C101.605 162.875 101.827 163.25 101.732 163.619L101.726 163.648Z" fill="#D8E3FF"/>
<path d="M99.9357 171.62L99.489 174.558L99.4857 174.584C99.4303 174.959 99.0814 175.213 98.7064 175.158C98.3315 175.102 98.0772 174.754 98.1326 174.379L98.5858 171.389C98.6412 171.014 98.9901 170.756 99.3651 170.815C99.7401 170.87 99.9976 171.219 99.9389 171.594L99.9357 171.62Z" fill="#D8E3FF"/>
<path d="M98.9769 179.733L98.8432 182.7V182.726C98.8269 183.101 98.5074 183.391 98.1324 183.375C97.7575 183.358 97.4673 183.039 97.4836 182.664L97.6173 179.641C97.6336 179.266 97.9531 178.973 98.3281 178.989C98.703 179.005 98.9965 179.325 98.9802 179.7L98.9769 179.733Z" fill="#D8E3FF"/>
<path d="M98.892 187.9L99.0779 190.868L99.0811 190.894C99.104 191.269 98.8203 191.588 98.4486 191.611C98.0736 191.634 97.7541 191.35 97.7313 190.978L97.5389 187.959C97.5161 187.584 97.7997 187.261 98.1747 187.239C98.5497 187.216 98.8725 187.499 98.8953 187.874L98.892 187.9Z" fill="#D8E3FF"/>
<path d="M99.6813 196.032L100.177 198.964L100.18 198.99C100.242 199.358 99.9943 199.704 99.6259 199.766C99.2574 199.828 98.9118 199.58 98.8498 199.215L98.3445 196.235C98.2825 195.866 98.5303 195.517 98.8987 195.455C99.2672 195.393 99.6161 195.641 99.678 196.01L99.6813 196.032Z" fill="#D8E3FF"/>
<path d="M101.298 204.047C101.559 205.002 101.8 205.967 102.081 206.916C102.185 207.272 101.983 207.647 101.628 207.751C101.272 207.855 100.897 207.653 100.793 207.298V207.295C100.506 206.329 100.261 205.351 99.9941 204.38C99.8963 204.021 100.108 203.652 100.464 203.555C100.822 203.457 101.191 203.669 101.289 204.024L101.298 204.047Z" fill="#D8E3FF"/>
<path d="M103.701 211.859L104.771 214.634L104.781 214.657C104.914 215.002 104.742 215.387 104.399 215.521C104.054 215.655 103.669 215.482 103.535 215.139L102.446 212.319C102.312 211.973 102.485 211.589 102.828 211.455C103.173 211.321 103.561 211.494 103.692 211.836L103.701 211.859Z" fill="#D8E3FF"/>
<path d="M106.887 219.388L108.224 222.045L108.234 222.065C108.4 222.394 108.266 222.792 107.94 222.958C107.611 223.125 107.213 222.991 107.047 222.665L105.687 219.968C105.521 219.639 105.655 219.238 105.981 219.075C106.31 218.909 106.711 219.042 106.874 219.368L106.887 219.388Z" fill="#D8E3FF"/>
<path d="M110.78 226.584L112.358 229.108L112.368 229.124C112.561 229.434 112.466 229.842 112.156 230.037C111.847 230.23 111.439 230.138 111.243 229.825L109.642 227.266C109.447 226.956 109.541 226.545 109.854 226.353C110.164 226.16 110.575 226.252 110.767 226.565L110.78 226.584Z" fill="#D8E3FF"/>
<path d="M115.306 233.405L117.089 235.792L117.102 235.808C117.321 236.099 117.262 236.513 116.969 236.731C116.679 236.95 116.264 236.891 116.046 236.597L114.236 234.181C114.018 233.891 114.077 233.477 114.37 233.259C114.66 233.04 115.074 233.099 115.293 233.392L115.306 233.405Z" fill="#D8E3FF"/>
<path d="M120.376 239.839L122.339 242.082L122.349 242.095C122.587 242.369 122.561 242.78 122.287 243.021C122.013 243.259 121.602 243.233 121.364 242.959L119.375 240.693C119.137 240.419 119.163 240.005 119.437 239.767C119.711 239.529 120.125 239.555 120.363 239.829L120.376 239.839Z" fill="#D8E3FF"/>
<path d="M125.913 245.884L128.029 247.987L128.039 247.997C128.293 248.251 128.296 248.665 128.042 248.919C127.788 249.174 127.377 249.177 127.119 248.923L124.98 246.8C124.723 246.546 124.723 246.132 124.977 245.877C125.231 245.62 125.645 245.62 125.9 245.874L125.913 245.884Z" fill="#D8E3FF"/>
<path d="M131.847 251.547L134.09 253.514L134.1 253.523C134.371 253.761 134.397 254.169 134.159 254.44C133.924 254.71 133.513 254.736 133.242 254.501L130.976 252.519C130.706 252.281 130.68 251.873 130.914 251.603C131.152 251.332 131.56 251.306 131.831 251.541L131.847 251.547Z" fill="#D8E3FF"/>
<path d="M138.117 256.843L140.471 258.682L140.481 258.688C140.761 258.907 140.81 259.314 140.592 259.595C140.373 259.875 139.966 259.927 139.685 259.705L137.312 257.853C137.031 257.635 136.979 257.227 137.201 256.947C137.419 256.667 137.827 256.614 138.107 256.836L138.117 256.843Z" fill="#D8E3FF"/>
<path d="M144.671 261.789L147.116 263.504L147.126 263.511C147.416 263.713 147.488 264.114 147.283 264.404C147.081 264.694 146.679 264.766 146.389 264.56L143.924 262.836C143.634 262.63 143.562 262.229 143.768 261.939C143.973 261.649 144.374 261.577 144.664 261.782L144.671 261.789Z" fill="#D8E3FF"/>
<path d="M151.466 266.403L153.99 268.004L154 268.01C154.296 268.199 154.388 268.594 154.199 268.894C154.01 269.191 153.615 269.282 153.318 269.093L150.775 267.485C150.475 267.296 150.387 266.902 150.576 266.602C150.765 266.302 151.16 266.214 151.46 266.403H151.466Z" fill="#D8E3FF"/>
<path d="M158.467 270.703L161.059 272.193L161.069 272.197C161.372 272.373 161.479 272.761 161.303 273.064C161.127 273.367 160.739 273.475 160.436 273.299L157.828 271.802C157.521 271.626 157.417 271.238 157.593 270.932C157.769 270.625 158.157 270.521 158.463 270.697L158.467 270.703Z" fill="#D8E3FF"/>
<path d="M165.643 274.708L168.291 276.093L168.297 276.097C168.607 276.26 168.728 276.641 168.565 276.951C168.402 277.261 168.02 277.381 167.71 277.218L165.043 275.826C164.733 275.663 164.613 275.281 164.776 274.972C164.939 274.662 165.32 274.541 165.63 274.704L165.643 274.708Z" fill="#D8E3FF"/>
<path d="M172.976 278.428L175.676 279.713L175.683 279.716C175.996 279.866 176.129 280.241 175.979 280.554C175.83 280.867 175.455 281.001 175.142 280.851L172.425 279.559C172.109 279.409 171.975 279.034 172.125 278.718C172.275 278.402 172.65 278.268 172.967 278.418L172.976 278.428Z" fill="#D8E3FF"/>
<path d="M180.437 281.881L183.179 283.071L183.185 283.074C183.502 283.211 183.648 283.58 183.512 283.899C183.375 284.219 183.006 284.362 182.687 284.225L179.928 283.032C179.609 282.895 179.465 282.523 179.602 282.207C179.739 281.887 180.111 281.744 180.427 281.881H180.437Z" fill="#D8E3FF"/>
<path d="M188.017 285.073L190.799 286.172L190.805 286.175C191.125 286.302 191.281 286.664 191.157 286.984C191.03 287.303 190.668 287.46 190.349 287.336L187.551 286.234C187.232 286.107 187.072 285.745 187.199 285.425C187.326 285.106 187.688 284.946 188.008 285.073H188.017Z" fill="#D8E3FF"/>
<path d="M195.699 288.014L198.517 289.022L198.523 289.025C198.846 289.139 199.012 289.494 198.898 289.817C198.784 290.14 198.429 290.306 198.106 290.192L195.276 289.181C194.953 289.067 194.783 288.712 194.901 288.386C195.015 288.063 195.37 287.894 195.696 288.011L195.699 288.014Z" fill="#D8E3FF"/>
<path d="M203.47 290.711L206.316 291.633L206.323 291.637C206.646 291.741 206.825 292.09 206.721 292.413C206.616 292.736 206.267 292.915 205.945 292.811L203.085 291.888C202.759 291.783 202.583 291.435 202.687 291.108C202.792 290.782 203.14 290.606 203.467 290.711H203.47Z" fill="#D8E3FF"/>
<path d="M211.321 293.172L214.194 294.007L214.2 294.01C214.526 294.105 214.712 294.444 214.618 294.77C214.523 295.096 214.184 295.282 213.858 295.187L210.972 294.349C210.646 294.255 210.457 293.912 210.552 293.586C210.646 293.26 210.989 293.071 211.315 293.166L211.321 293.172Z" fill="#D8E3FF"/>
<path d="M219.241 295.393L222.137 296.143H222.143C222.469 296.227 222.665 296.56 222.58 296.886C222.495 297.212 222.163 297.408 221.837 297.323L218.925 296.573C218.599 296.488 218.4 296.156 218.485 295.83C218.57 295.504 218.902 295.305 219.228 295.389L219.241 295.393Z" fill="#D8E3FF"/>
<path d="M227.226 297.375L230.145 298.037H230.151C230.477 298.112 230.683 298.435 230.608 298.764C230.533 299.09 230.21 299.296 229.881 299.221L226.949 298.559C226.62 298.484 226.415 298.158 226.49 297.832C226.565 297.502 226.891 297.297 227.217 297.372L227.226 297.375Z" fill="#D8E3FF"/>
<path d="M235.267 299.116L238.205 299.687H238.211C238.538 299.752 238.753 300.069 238.688 300.395C238.622 300.721 238.306 300.936 237.98 300.871L235.029 300.297C234.7 300.235 234.488 299.915 234.55 299.589C234.615 299.26 234.931 299.048 235.261 299.11L235.267 299.116Z" fill="#D8E3FF"/>
<path d="M243.36 300.61L246.314 301.089H246.32C246.646 301.141 246.871 301.451 246.816 301.777C246.764 302.103 246.454 302.328 246.128 302.273L243.161 301.793C242.831 301.741 242.61 301.432 242.662 301.102C242.714 300.773 243.024 300.551 243.353 300.603L243.36 300.61Z" fill="#D8E3FF"/>
<path d="M251.492 301.842L254.459 302.23H254.462C254.788 302.273 255.02 302.573 254.977 302.902C254.935 303.231 254.635 303.459 254.309 303.417L251.332 303.029C251.002 302.987 250.774 302.687 250.817 302.357C250.859 302.028 251.159 301.797 251.488 301.842H251.492Z" fill="#D8E3FF"/>
<path d="M259.66 302.853L262.637 303.176H262.64C262.966 303.212 263.201 303.505 263.168 303.831C263.132 304.157 262.839 304.392 262.513 304.36L259.526 304.037C259.2 304.001 258.962 303.707 258.998 303.381C259.034 303.055 259.327 302.817 259.653 302.853H259.66Z" fill="#D8E3FF"/>
<path d="M267.85 303.685L270.834 303.939H270.84C271.166 303.968 271.407 304.252 271.378 304.578C271.349 304.904 271.065 305.145 270.739 305.116L267.746 304.862C267.42 304.832 267.178 304.549 267.205 304.223C267.231 303.897 267.518 303.655 267.844 303.681L267.85 303.685Z" fill="#D8E3FF"/>
<path d="M276.057 304.324L279.044 304.51H279.051C279.373 304.529 279.621 304.81 279.602 305.132C279.582 305.455 279.302 305.703 278.979 305.683L275.982 305.501C275.656 305.481 275.412 305.201 275.431 304.878C275.451 304.552 275.731 304.307 276.054 304.327H276.057V304.324Z" fill="#D8E3FF"/>
<path d="M284.277 304.774L287.267 304.888H287.274C287.597 304.901 287.848 305.171 287.835 305.494C287.822 305.817 287.551 306.068 287.228 306.055L284.225 305.944C283.902 305.931 283.648 305.661 283.661 305.338C283.674 305.015 283.945 304.761 284.268 304.774H284.277Z" fill="#D8E3FF"/>
<path d="M292.504 305.018L295.497 305.057H295.503C295.823 305.06 296.081 305.325 296.077 305.647C296.074 305.97 295.81 306.225 295.487 306.221L292.484 306.185C292.161 306.182 291.904 305.918 291.91 305.595C291.914 305.272 292.178 305.015 292.5 305.018H292.504Z" fill="#D8E3FF"/>
<path d="M300.734 305.06L303.727 305.021H303.733C304.053 305.018 304.314 305.272 304.32 305.592C304.323 305.911 304.069 306.172 303.75 306.179L300.747 306.218C300.427 306.221 300.163 305.967 300.16 305.647C300.156 305.328 300.411 305.064 300.73 305.06H300.734Z" fill="#D8E3FF"/>
<path d="M308.963 304.888L311.953 304.77H311.96C312.276 304.757 312.543 305.005 312.556 305.321C312.569 305.638 312.322 305.905 312.005 305.918L309.002 306.035C308.683 306.048 308.415 305.801 308.402 305.481C308.389 305.165 308.637 304.894 308.957 304.881L308.963 304.888Z" fill="#D8E3FF"/>
<path d="M317.183 304.496L320.17 304.301H320.177C320.493 304.281 320.763 304.519 320.786 304.832C320.806 305.148 320.568 305.419 320.255 305.442L317.258 305.641C316.942 305.664 316.668 305.422 316.649 305.106C316.629 304.79 316.867 304.516 317.183 304.496Z" fill="#D8E3FF"/>
<path d="M325.39 303.884L328.37 303.603H328.377C328.69 303.574 328.967 303.805 328.997 304.115C329.026 304.428 328.798 304.705 328.485 304.735L325.495 305.018C325.182 305.048 324.904 304.819 324.875 304.506C324.846 304.193 325.074 303.916 325.39 303.887V303.884Z" fill="#D8E3FF"/>
<path d="M333.574 303.045L336.545 302.683H336.551C336.861 302.644 337.145 302.866 337.18 303.176C337.22 303.486 336.998 303.769 336.688 303.805L333.708 304.17C333.398 304.209 333.114 303.988 333.075 303.678C333.036 303.368 333.258 303.084 333.568 303.045H333.574Z" fill="#D8E3FF"/>
<path d="M341.732 301.973L344.69 301.526H344.696C345.003 301.48 345.29 301.692 345.335 301.999C345.381 302.305 345.172 302.592 344.863 302.638L341.892 303.091C341.586 303.137 341.299 302.925 341.25 302.618C341.204 302.312 341.416 302.025 341.723 301.976L341.732 301.973Z" fill="#D8E3FF"/>
<path d="M349.858 300.668L352.802 300.134H352.809C353.112 300.078 353.402 300.28 353.457 300.584C353.513 300.887 353.311 301.177 353.007 301.232L350.053 301.77C349.75 301.826 349.457 301.624 349.401 301.321C349.346 301.017 349.548 300.724 349.851 300.668H349.858Z" fill="#D8E3FF"/>
<path d="M357.941 299.126L360.869 298.507H360.875C361.175 298.441 361.472 298.634 361.534 298.934C361.599 299.234 361.407 299.53 361.107 299.592L358.169 300.218C357.869 300.284 357.572 300.091 357.507 299.788C357.442 299.485 357.634 299.191 357.937 299.126H357.941Z" fill="#D8E3FF"/>
<path d="M365.972 297.343L368.88 296.635H368.887C369.183 296.563 369.483 296.746 369.555 297.043C369.627 297.34 369.444 297.639 369.151 297.711L366.233 298.425C365.936 298.497 365.636 298.314 365.564 298.018C365.492 297.721 365.675 297.421 365.972 297.349V297.343Z" fill="#D8E3FF"/>
<path d="M373.95 295.321L376.836 294.526H376.842C377.136 294.444 377.436 294.617 377.517 294.91C377.599 295.204 377.426 295.507 377.133 295.585L374.237 296.384C373.944 296.466 373.641 296.293 373.559 295.999C373.477 295.706 373.65 295.403 373.944 295.321H373.95Z" fill="#D8E3FF"/>
<path d="M381.861 293.058L384.72 292.175L384.727 292.171C385.014 292.083 385.32 292.243 385.408 292.533C385.496 292.82 385.336 293.127 385.046 293.215L382.177 294.102C381.887 294.19 381.58 294.03 381.492 293.74C381.404 293.45 381.564 293.143 381.854 293.055L381.861 293.058Z" fill="#D8E3FF"/>
<path d="M389.699 290.557L392.533 289.589L392.536 289.586C392.82 289.488 393.129 289.641 393.224 289.925C393.322 290.208 393.168 290.518 392.885 290.613L390.045 291.588C389.761 291.686 389.451 291.532 389.354 291.249C389.256 290.965 389.409 290.655 389.693 290.557H389.699Z" fill="#D8E3FF"/>
<path d="M397.476 287.845L400.293 286.827C400.573 286.726 400.883 286.87 400.984 287.15C401.085 287.43 400.942 287.74 400.661 287.845L397.841 288.865C397.56 288.966 397.251 288.823 397.15 288.539C397.045 288.259 397.192 287.949 397.476 287.845Z" fill="#D8E3FF"/>
<path d="M405.213 285.018L408.02 283.968C408.298 283.863 408.607 284.003 408.712 284.281C408.816 284.558 408.676 284.868 408.399 284.972L405.591 286.025C405.314 286.129 405.004 285.989 404.9 285.712C404.792 285.432 404.933 285.122 405.213 285.018Z" fill="#D8E3FF"/>
<path d="M412.921 282.106L415.719 281.03C415.993 280.922 416.302 281.059 416.41 281.333C416.518 281.607 416.381 281.917 416.103 282.024L413.306 283.104C413.032 283.211 412.722 283.071 412.615 282.797C412.507 282.52 412.644 282.21 412.921 282.106Z" fill="#D8E3FF"/>
<path d="M420.61 279.132L423.401 278.043C423.674 277.935 423.981 278.069 424.089 278.343C424.196 278.617 424.063 278.923 423.789 279.031L420.998 280.123C420.724 280.231 420.417 280.094 420.31 279.823C420.199 279.546 420.336 279.24 420.61 279.132Z" fill="#D8E3FF"/>
<path d="M428.285 276.126L431.076 275.03C431.347 274.923 431.653 275.056 431.758 275.327C431.865 275.598 431.732 275.904 431.461 276.009L428.67 277.107C428.399 277.215 428.093 277.081 427.985 276.811C427.881 276.54 428.014 276.234 428.285 276.126Z" fill="#D8E3FF"/>
<path d="M435.96 273.113L438.755 272.021C439.025 271.916 439.329 272.047 439.433 272.317C439.537 272.588 439.404 272.891 439.136 272.996L436.345 274.091C436.075 274.199 435.771 274.065 435.664 273.795C435.556 273.524 435.69 273.221 435.96 273.113Z" fill="#D8E3FF"/>
<path d="M443.646 270.12L446.443 269.041C446.711 268.936 447.014 269.07 447.115 269.337C447.219 269.605 447.082 269.908 446.815 270.012L444.021 271.092C443.753 271.196 443.45 271.062 443.346 270.795C443.241 270.527 443.375 270.224 443.646 270.12Z" fill="#D8E3FF"/>
<path d="M451.347 267.169L454.155 266.113C454.422 266.012 454.719 266.149 454.82 266.416C454.921 266.683 454.784 266.983 454.517 267.084L451.713 268.141C451.445 268.242 451.145 268.108 451.044 267.841C450.946 267.573 451.08 267.273 451.347 267.169Z" fill="#D8E3FF"/>
<path d="M459.081 264.29L461.902 263.266C462.169 263.168 462.463 263.305 462.561 263.572C462.658 263.84 462.518 264.137 462.251 264.231L459.437 265.255C459.17 265.353 458.873 265.216 458.775 264.952C458.674 264.688 458.811 264.391 459.081 264.29Z" fill="#D8E3FF"/>
<path d="M466.852 261.509L469.688 260.527C469.956 260.436 470.246 260.576 470.337 260.843C470.429 261.111 470.285 261.401 470.018 261.496L467.187 262.477C466.92 262.572 466.627 262.431 466.535 262.164C466.441 261.897 466.581 261.606 466.852 261.509Z" fill="#D8E3FF"/>
<path d="M474.664 258.851L477.517 257.922C477.784 257.834 478.071 257.981 478.156 258.248C478.244 258.515 478.094 258.802 477.827 258.89L474.98 259.819C474.713 259.908 474.426 259.764 474.335 259.5C474.247 259.233 474.39 258.946 474.654 258.854L474.664 258.851Z" fill="#D8E3FF"/>
<path d="M482.532 256.344L485.404 255.473C485.672 255.392 485.952 255.542 486.034 255.809C486.115 256.076 485.965 256.357 485.698 256.438H485.695L482.829 257.309H482.825C482.558 257.39 482.274 257.24 482.196 256.973C482.118 256.706 482.265 256.425 482.532 256.344Z" fill="#D8E3FF"/>
<path d="M490.452 254.012L493.347 253.214C493.615 253.139 493.892 253.295 493.964 253.562C494.039 253.83 493.882 254.104 493.615 254.179H493.611L490.726 254.978H490.723C490.455 255.053 490.178 254.896 490.103 254.629C490.028 254.365 490.184 254.087 490.452 254.012Z" fill="#D8E3FF"/>
<path d="M498.431 251.883L501.352 251.173C501.619 251.107 501.89 251.27 501.952 251.538C502.017 251.805 501.854 252.076 501.587 252.138L501.58 252.141L498.675 252.849L498.669 252.852C498.401 252.917 498.131 252.754 498.065 252.487C498 252.219 498.163 251.949 498.431 251.883Z" fill="#D8E3FF"/>
<path d="M506.491 250.038L509.438 249.454C509.706 249.402 509.966 249.575 510.019 249.842C510.071 250.109 509.898 250.37 509.631 250.423H509.624L506.69 251.006H506.683C506.416 251.058 506.155 250.886 506.099 250.618C506.047 250.354 506.22 250.093 506.491 250.038Z" fill="#D8E3FF"/>
<path d="M514.62 248.544L517.59 248.088C517.857 248.045 518.108 248.231 518.151 248.499C518.193 248.766 518.007 249.017 517.74 249.059H517.733L514.779 249.516H514.773C514.502 249.558 514.251 249.372 514.212 249.105C514.166 248.838 514.352 248.587 514.62 248.544Z" fill="#D8E3FF"/>
<path d="M522.807 247.403L525.797 247.08C526.064 247.051 526.306 247.247 526.335 247.514C526.364 247.781 526.169 248.023 525.901 248.052H525.895L522.921 248.378H522.915C522.647 248.407 522.403 248.212 522.373 247.944C522.344 247.677 522.54 247.432 522.807 247.403Z" fill="#D8E3FF"/>
<path d="M531.036 246.63L534.036 246.441C534.304 246.425 534.535 246.627 534.551 246.895C534.568 247.162 534.366 247.393 534.098 247.41H534.092L531.108 247.599H531.102C530.834 247.615 530.603 247.413 530.587 247.146C530.567 246.878 530.769 246.647 531.036 246.63Z" fill="#D8E3FF"/>
<path d="M539.296 246.229L542.309 246.18C542.576 246.177 542.794 246.389 542.798 246.653C542.801 246.921 542.589 247.139 542.325 247.142H542.299L539.319 247.195H539.309C539.041 247.198 538.823 246.986 538.816 246.718C538.816 246.454 539.028 246.236 539.296 246.229Z" fill="#D8E3FF"/>
<path d="M547.578 246.425L550.577 246.669C550.841 246.692 551.037 246.921 551.014 247.185C550.991 247.449 550.763 247.644 550.499 247.622H550.489L547.512 247.38H547.503C547.238 247.357 547.043 247.129 547.062 246.865C547.082 246.601 547.313 246.405 547.578 246.425Z" fill="#D8E3FF"/>
<path d="M555.807 247.244L558.788 247.648C559.048 247.684 559.228 247.922 559.192 248.183C559.156 248.44 558.918 248.623 558.657 248.587H558.647L555.687 248.186H555.677C555.416 248.15 555.234 247.912 555.269 247.651C555.309 247.39 555.547 247.208 555.807 247.244Z" fill="#D8E3FF"/>
<path d="M563.982 248.489L566.936 249.043C567.19 249.092 567.36 249.337 567.311 249.591C567.262 249.845 567.017 250.015 566.763 249.966H566.757L563.819 249.418H563.809C563.555 249.369 563.385 249.125 563.431 248.867C563.48 248.61 563.727 248.44 563.982 248.489Z" fill="#D8E3FF"/>
<path d="M572.081 250.145L575.003 250.853C575.254 250.915 575.407 251.166 575.345 251.414C575.283 251.665 575.032 251.818 574.784 251.756L574.774 251.753L571.869 251.055L571.859 251.052C571.608 250.99 571.455 250.739 571.514 250.488C571.579 250.24 571.83 250.087 572.081 250.145Z" fill="#D8E3FF"/>
<path d="M580.086 252.226L582.965 253.09C583.21 253.161 583.347 253.419 583.275 253.663C583.203 253.908 582.945 254.045 582.701 253.973L582.691 253.97L579.828 253.116L579.819 253.112C579.574 253.041 579.434 252.78 579.509 252.535C579.584 252.291 579.841 252.151 580.086 252.226Z" fill="#D8E3FF"/>
<path d="M587.963 254.743L590.79 255.773C591.028 255.858 591.149 256.122 591.064 256.36C590.976 256.598 590.715 256.719 590.477 256.634L590.468 256.631L587.66 255.61L587.65 255.607C587.412 255.519 587.288 255.258 587.377 255.02C587.461 254.779 587.725 254.658 587.963 254.743Z" fill="#D8E3FF"/>
<path d="M595.678 257.733L598.433 258.943C598.662 259.044 598.766 259.311 598.665 259.539C598.564 259.768 598.296 259.872 598.068 259.771L598.058 259.768L595.323 258.571L595.313 258.568C595.081 258.467 594.977 258.199 595.078 257.968C595.179 257.736 595.447 257.632 595.678 257.733Z" fill="#D8E3FF"/>
<path d="M603.181 261.222L605.845 262.621C606.063 262.735 606.148 263.009 606.034 263.227C605.92 263.445 605.646 263.53 605.427 263.416L605.418 263.41L602.773 262.024L602.763 262.017C602.542 261.903 602.457 261.629 602.574 261.408C602.685 261.192 602.959 261.108 603.181 261.222Z" fill="#D8E3FF"/>
<path d="M610.413 265.245L612.963 266.846C613.171 266.977 613.233 267.25 613.103 267.459C612.972 267.668 612.699 267.73 612.49 267.599L612.48 267.593L609.95 266.008L609.94 266.002C609.731 265.871 609.666 265.594 609.8 265.385C609.927 265.177 610.204 265.115 610.413 265.245Z" fill="#D8E3FF"/>
<path d="M617.309 269.826L619.719 271.636C619.914 271.783 619.953 272.06 619.807 272.255C619.66 272.451 619.383 272.49 619.187 272.344L619.177 272.334L616.791 270.544L616.781 270.534C616.585 270.387 616.546 270.11 616.693 269.914C616.836 269.722 617.113 269.68 617.309 269.826Z" fill="#D8E3FF"/>
<path d="M623.788 274.991L626.021 277.013C626.201 277.176 626.214 277.453 626.051 277.629C625.887 277.808 625.61 277.822 625.434 277.662L625.425 277.652L623.211 275.653L623.201 275.643C623.021 275.48 623.005 275.203 623.168 275.024C623.328 274.841 623.605 274.828 623.788 274.991Z" fill="#D8E3FF"/>
<path d="M629.758 280.733L631.786 282.963C631.946 283.139 631.933 283.413 631.757 283.576C631.581 283.736 631.307 283.723 631.144 283.547L631.134 283.537L629.125 281.333L629.116 281.323C628.953 281.147 628.966 280.87 629.145 280.71C629.321 280.541 629.595 280.554 629.758 280.733Z" fill="#D8E3FF"/>
<path d="M215.364 37.1953L217.803 48.6009L224.478 42.0438L215.364 37.1953Z" fill="#7D97F4"/>
<path d="M265.248 19.6694L240.23 53.2798C239.75 53.9221 239.03 54.3427 238.234 54.4471C237.439 54.5481 236.637 54.3232 236.01 53.8178L203.212 27.4264C202.837 27.1232 202.681 26.6243 202.821 26.1646C202.961 25.7016 203.365 25.3722 203.845 25.3266L265.248 19.6694Z" fill="#91B3FA"/>
<path d="M215.368 37.1952L265.248 19.6694L220.647 41.4698L221.188 44.662L215.368 37.1952Z" fill="#7D97F4"/>
<path d="M223.796 43.9804L217.803 48.6007L220.646 41.4697L223.796 43.9804Z" fill="#7D97F4"/>
<path d="M225.257 392.927L225.739 398.356C225.739 398.356 223.075 429.893 222.521 442.492C222.433 444.468 222.945 446.421 223.982 448.103L229.391 456.884L215.648 448.775L215.374 447.099L217.624 444.005L214.676 408.715C214.503 406.642 214.93 404.565 215.909 402.726L218.752 397.385L225.257 392.927Z" fill="url(#paint32_linear_81_189)"/>
<path d="M230.298 458.159H225.912C225.091 458.159 224.318 457.781 223.816 457.132C222.45 455.355 219.616 451.889 218.26 451.798C216.437 451.677 216.669 458.159 216.669 458.159H215.645L214.35 450.102C214.024 448.074 215.032 446.069 216.851 445.117C216.851 445.117 217.269 448.198 219.528 449.564C221.788 450.927 228.726 455.811 228.726 455.811C228.726 455.811 229.577 455.691 230.51 455.86C231.896 456.111 231.703 458.159 230.298 458.159Z" fill="url(#paint33_linear_81_189)"/>
<path d="M213.441 392.927L214.37 398.392C214.37 398.392 211.26 429.896 210.705 442.495C210.617 444.471 211.129 446.424 212.166 448.107L217.575 456.888L203.832 448.778L203.558 447.102L205.808 444.008L202.86 408.719C202.687 406.645 203.115 404.568 204.093 402.729L206.936 397.388L213.441 392.927Z" fill="url(#paint34_linear_81_189)"/>
<path d="M197.75 356.784C198.497 350.758 206.039 345.075 206.039 345.075C215.566 348.485 222.358 343.438 222.358 343.438C222.358 343.438 225.325 349.532 225.355 355.74C225.387 361.948 225.766 401.809 225.766 401.809C214.751 406.426 203.378 404.16 203.378 404.16C204.233 389.81 197.004 362.806 197.75 356.784Z" fill="url(#paint35_linear_81_189)"/>
<path d="M264.199 288.562C263.987 287.991 263.181 287.975 262.947 288.539C262.076 290.619 260.152 294.203 256.941 295.158C256.778 295.207 256.624 295.256 256.478 295.308C256.393 294.878 256.452 294.395 256.843 293.932C257.971 292.605 256.51 290.414 256.51 290.414C256.51 290.414 256.178 292.139 254.717 293.068C253.458 293.867 252.65 295.898 253.21 297.718C254.055 304.324 255.457 313.098 245.069 318.071C234.684 323.046 222.91 308.823 222.91 308.823L227.432 325.629C227.432 325.629 236.836 334.582 250.247 325.342C263.657 316.101 257.632 299.443 257.632 299.443C257.632 299.443 267.303 296.89 264.199 288.562Z" fill="url(#paint36_linear_81_189)"/>
<path d="M214.021 282.993C214.021 282.993 204.39 281.333 204.807 292.22C204.882 294.209 200.94 296.407 202.11 299.968C202.717 301.807 202.088 303.802 200.483 304.885C196.489 307.578 190.91 312.951 193.378 320.93C195.263 327.021 199.195 327.81 202.603 327.115C205.104 326.607 207.627 328.084 208.244 330.562C208.834 332.939 210.669 335.143 215.368 335.352C225.9 335.818 227.24 316.851 227.24 316.851L216.604 289.866L214.021 282.993Z" fill="url(#paint37_linear_81_189)"/>
<path d="M218.479 458.159H214.093C213.271 458.159 212.499 457.781 211.997 457.132C210.63 455.355 207.797 451.889 206.44 451.798C204.618 451.677 204.849 458.159 204.849 458.159H203.825L202.531 450.102C202.205 448.074 203.212 446.069 205.032 445.117C205.032 445.117 205.449 448.198 207.709 449.564C209.968 450.927 216.907 455.811 216.907 455.811C216.907 455.811 217.758 455.691 218.691 455.86C220.08 456.111 219.887 458.159 218.479 458.159Z" fill="url(#paint38_linear_81_189)"/>
<path d="M206.124 345.303C210.822 325.387 198.918 314.125 198.918 314.125C204.745 308.533 215.739 307.728 220.383 307.65C221.772 307.627 223.076 308.285 223.901 309.404C226.232 312.566 230.631 319.443 229.48 325.002C228.57 329.385 222.45 346.897 222.45 346.897C222.45 346.897 214.8 350.513 206.124 345.303Z" fill="url(#paint39_linear_81_189)"/>
<path d="M214.833 293.684L211.774 308.827C211.409 310.34 213.594 310.666 215.143 310.793C217.793 311.008 219.28 310.382 220.36 308.432C220.47 308.233 220.523 308.008 220.555 307.786L222.195 295.885C222.326 294.94 221.814 294.023 220.943 293.639L217.774 292.233C216.558 291.692 215.146 292.387 214.833 293.684Z" fill="url(#paint40_linear_81_189)"/>
<path d="M198.918 314.122C198.918 314.122 172.25 333.203 195.507 353.252C195.507 353.252 196.394 354.257 198.139 354.778C199.019 355.042 201.624 357.012 202.945 358.042C203.369 358.371 203.982 358.261 204.269 357.804C204.494 357.445 204.52 356.999 204.337 356.617L201.034 349.636C200.118 348.782 198.713 348.72 197.728 349.493C197.099 349.985 196.176 349.78 195.824 349.062C194.027 345.401 190.63 334.631 204.526 322.459C205.048 322.003 205.182 321.246 204.859 320.63C203.884 318.752 201.654 315.028 198.918 314.122Z" fill="url(#paint41_linear_81_189)"/>
<path d="M222.147 281.884C222.147 281.884 225.897 285.057 226.888 292.217C227.876 299.377 224.785 301.575 221.906 301.109C219.026 300.646 214.925 299.299 211.824 293.906C208.723 288.513 217.207 277.971 222.147 281.884Z" fill="url(#paint42_linear_81_189)"/>
<path d="M215.795 291.487C215.795 291.487 215.388 281.336 223.516 283.756L225.006 285.683C225.006 285.683 229.558 281.545 225.437 277.606C221.315 273.668 214.983 273.883 210.859 279.804C206.734 285.725 205.006 290.013 207.477 294.232C209.949 298.451 212.482 295.334 212.482 295.334C212.482 295.334 211.52 291.806 212.776 290.473C214.031 289.139 215.205 291.588 215.205 291.588L215.795 291.487Z" fill="url(#paint43_linear_81_189)"/>
<path d="M215.221 292.873C215.221 292.873 215.042 287.652 212.257 288.842C209.473 290.029 212.688 293.746 213.998 295.034L215.221 292.873Z" fill="url(#paint44_linear_81_189)"/>
<path d="M403.149 272.464C403.149 277.137 399.712 280.926 395.457 280.926H334.399C330.144 280.926 326.694 277.137 326.694 272.464V101.24C326.694 96.5676 330.144 92.7788 334.399 92.7788H395.457C399.712 92.7788 403.149 96.5676 403.149 101.24V272.464Z" fill="url(#paint45_linear_81_189)"/>
<path d="M382.633 83.033H346.812C345.003 83.033 343.183 84.7969 343.183 87.0174V92.7789H385.16V87.0174C385.16 84.8002 384.443 83.033 382.633 83.033Z" fill="url(#paint46_linear_81_189)"/>
<path d="M379.911 122.764H368.668V110.018H361.922V122.764H349.929V129.51H361.922V142.252H368.668V129.51H379.911V122.764Z" fill="url(#paint47_linear_81_189)"/>
<path d="M403.149 159.491V273.087C403.149 277.76 399.5 281.672 395.245 281.672H334.399C330.144 281.672 326.694 277.76 326.694 273.087V159.491H403.149Z" fill="url(#paint48_linear_81_189)"/>
<path d="M380.716 216.154C380.661 216.04 380.553 215.71 380.436 215.71H367.576C367.478 215.71 367.387 215.919 367.325 215.834C367.266 215.749 367.243 215.769 367.269 215.665L372.649 192.69C372.685 192.531 372.617 192.394 372.48 192.322C372.343 192.25 372.18 192.312 372.088 192.443L349.153 226.213C349.082 226.317 349.072 226.177 349.124 226.294C349.176 226.412 349.287 226.203 349.408 226.203H361.205C361.299 226.203 361.39 226.536 361.449 226.617C361.508 226.699 361.534 226.946 361.514 227.051L356.617 253.814C356.588 253.977 356.666 254.172 356.803 254.238C356.94 254.303 357.103 254.27 357.187 254.133L380.693 216.633C380.762 216.529 380.768 216.268 380.716 216.154Z" fill="#BDD0FB"/>
<path d="M674.031 307.199H538.781C535.892 307.199 533.547 304.855 533.547 301.966C533.547 299.077 535.892 296.733 538.781 296.733H674.031C676.919 296.733 679.264 299.077 679.264 301.966C679.264 304.855 676.923 307.199 674.031 307.199Z" fill="#BDD0FB"/>
<path d="M690.282 327.699H555.032C552.143 327.699 549.798 325.355 549.798 322.466C549.798 319.577 552.143 317.232 555.032 317.232H690.282C693.17 317.232 695.515 319.577 695.515 322.466C695.515 325.358 693.174 327.699 690.282 327.699Z" fill="#BDD0FB"/>
<path d="M651.823 368.701H555.032C552.143 368.701 549.798 366.357 549.798 363.468C549.798 360.579 552.143 358.234 555.032 358.234H651.823C654.712 358.234 657.056 360.579 657.056 363.468C657.056 366.357 654.712 368.701 651.823 368.701Z" fill="#BDD0FB"/>
<path d="M705.45 348.202H570.2C567.311 348.202 564.967 345.857 564.967 342.968C564.967 340.079 567.311 337.735 570.2 337.735H705.45C708.339 337.735 710.683 340.079 710.683 342.968C710.683 345.857 708.342 348.202 705.45 348.202Z" fill="#BDD0FB"/>
<path d="M160.844 336.114H25.5936C22.7047 336.114 20.3604 333.77 20.3604 330.881C20.3604 327.992 22.7047 325.648 25.5936 325.648H160.844C163.732 325.648 166.077 327.992 166.077 330.881C166.077 333.77 163.736 336.114 160.844 336.114Z" fill="#BDD0FB"/>
<path d="M177.095 356.614H41.8446C38.9557 356.614 36.6113 354.27 36.6113 351.381C36.6113 348.492 38.9557 346.147 41.8446 346.147H177.095C179.983 346.147 182.328 348.492 182.328 351.381C182.328 354.273 179.987 356.614 177.095 356.614Z" fill="#BDD0FB"/>
<path d="M138.636 397.616H41.8446C38.9557 397.616 36.6113 395.272 36.6113 392.383C36.6113 389.494 38.9557 387.149 41.8446 387.149H138.636C141.525 387.149 143.869 389.494 143.869 392.383C143.869 395.272 141.525 397.616 138.636 397.616Z" fill="#BDD0FB"/>
<path d="M192.263 377.113H57.0131C54.1242 377.113 51.7798 374.769 51.7798 371.88C51.7798 368.991 54.1242 366.647 57.0131 366.647H192.263C195.152 366.647 197.496 368.991 197.496 371.88C197.496 374.772 195.152 377.113 192.263 377.113Z" fill="#BDD0FB"/>
<g opacity="0.6">
<path d="M274.906 354.684C274.753 354.481 274.704 354.211 274.802 353.956C275.17 353.004 275.591 352.059 276.05 351.149C276.236 350.781 276.689 350.631 277.058 350.82C277.426 351.006 277.576 351.459 277.387 351.827C276.95 352.691 276.549 353.591 276.2 354.498C276.05 354.882 275.617 355.075 275.229 354.928C275.095 354.876 274.987 354.791 274.906 354.684Z" fill="#91B3FA"/>
<path d="M281.469 344.458C281.248 344.168 281.264 343.751 281.528 343.48C282.584 342.391 283.729 341.374 284.926 340.454C285.261 340.197 285.601 339.946 285.946 339.704C286.285 339.466 286.745 339.535 286.99 339.887C287.228 340.226 287.146 340.692 286.807 340.93C286.478 341.162 286.155 341.4 285.835 341.644C284.694 342.518 283.608 343.49 282.601 344.527C282.314 344.823 281.838 344.83 281.541 344.543C281.515 344.517 281.492 344.488 281.469 344.458ZM294.016 336.685C293.964 336.617 293.925 336.542 293.896 336.457C293.768 336.062 293.987 335.642 294.381 335.514C296.227 334.928 298.134 334.51 300.058 334.275C300.469 334.226 300.841 334.517 300.893 334.928C300.942 335.338 300.652 335.713 300.241 335.762C298.411 335.987 296.592 336.385 294.838 336.943C294.531 337.04 294.205 336.93 294.016 336.685ZM308.751 335.739C308.627 335.576 308.568 335.364 308.607 335.149C308.682 334.742 309.074 334.471 309.481 334.546C311.389 334.892 313.27 335.423 315.076 336.118C315.464 336.264 315.657 336.701 315.507 337.086C315.357 337.471 314.923 337.666 314.538 337.516C312.82 336.855 311.03 336.352 309.214 336.023C309.018 335.984 308.858 335.88 308.751 335.739ZM322.185 341.84C321.979 341.573 321.976 341.191 322.194 340.917C322.452 340.594 322.925 340.539 323.248 340.797C323.671 341.132 324.085 341.481 324.496 341.843C325.543 342.769 326.534 343.767 327.444 344.817C327.721 345.133 327.682 345.603 327.369 345.873C327.056 346.144 326.583 346.111 326.312 345.798C325.445 344.801 324.503 343.845 323.505 342.965C323.114 342.619 322.719 342.287 322.315 341.967C322.263 341.931 322.22 341.889 322.185 341.84Z" fill="#91B3FA"/>
<path d="M332.24 356.389C332.188 356.324 332.149 356.245 332.12 356.161C331.823 355.231 331.477 354.312 331.096 353.422C330.933 353.04 331.106 352.6 331.487 352.437C331.869 352.271 332.309 352.45 332.472 352.828C332.873 353.761 333.235 354.729 333.548 355.704C333.675 356.099 333.457 356.519 333.062 356.646C332.752 356.744 332.426 356.633 332.24 356.389Z" fill="#91B3FA"/>
</g>
<g opacity="0.6">
<path d="M329.166 381.61C328.983 381.368 328.954 381.033 329.123 380.759C329.635 379.931 330.111 379.07 330.535 378.199C330.718 377.827 331.165 377.674 331.536 377.853C331.908 378.033 332.061 378.483 331.882 378.858C331.435 379.774 330.936 380.677 330.398 381.548C330.18 381.9 329.72 382.007 329.368 381.792C329.286 381.74 329.221 381.678 329.166 381.61Z" fill="#91B3FA"/>
<path d="M279.269 384.329C279.018 384.003 279.076 383.537 279.403 383.282C279.729 383.028 280.201 383.087 280.456 383.413C281.564 384.838 282.82 386.171 284.179 387.378C284.492 387.648 284.518 388.124 284.241 388.434C283.967 388.744 283.495 388.773 283.185 388.496C281.753 387.228 280.439 385.826 279.272 384.332C279.269 384.332 279.269 384.329 279.269 384.329ZM290.658 393.332C290.495 393.12 290.449 392.826 290.57 392.562C290.743 392.187 291.186 392.021 291.561 392.19C293.208 392.944 294.936 393.544 296.697 393.98C297.098 394.082 297.342 394.486 297.245 394.89C297.144 395.291 296.739 395.536 296.338 395.438C294.489 394.978 292.673 394.346 290.942 393.557C290.824 393.504 290.73 393.426 290.658 393.332ZM304.923 396.018C304.835 395.904 304.78 395.761 304.77 395.604C304.747 395.19 305.064 394.838 305.478 394.815C307.287 394.717 309.1 394.45 310.861 394.026C311.265 393.928 311.669 394.176 311.764 394.577C311.862 394.978 311.614 395.386 311.213 395.48C309.364 395.927 307.463 396.207 305.559 396.309C305.302 396.325 305.067 396.207 304.923 396.018ZM318.817 391.802C318.797 391.78 318.781 391.754 318.768 391.727C318.556 391.372 318.673 390.912 319.029 390.7C320.02 390.11 320.985 389.458 321.901 388.754C322.423 388.356 322.935 387.932 323.427 387.498C323.737 387.225 324.213 387.257 324.484 387.567C324.758 387.883 324.725 388.353 324.415 388.627C323.897 389.083 323.359 389.526 322.811 389.944C321.849 390.681 320.832 391.372 319.792 391.992C319.462 392.184 319.045 392.099 318.817 391.802Z" fill="#91B3FA"/>
<path d="M274.831 376.422C274.789 376.367 274.75 376.301 274.724 376.23C274.362 375.271 274.045 374.29 273.781 373.308C273.674 372.907 273.912 372.496 274.313 372.389C274.71 372.281 275.125 372.519 275.229 372.92C275.48 373.853 275.78 374.792 276.126 375.701C276.272 376.089 276.077 376.52 275.689 376.667C275.372 376.784 275.027 376.676 274.831 376.422Z" fill="#91B3FA"/>
</g>
<path d="M280.726 368.385C280.729 368.541 280.834 368.675 280.984 368.724L285.226 370.044C285.761 372.05 286.615 373.983 287.795 375.763L285.972 379.81C285.907 379.953 285.943 380.119 286.054 380.224L289.934 383.876C290.048 383.983 290.215 384.006 290.355 383.934L294.284 381.87C296.129 382.94 298.112 383.68 300.146 384.091L301.721 388.245C301.777 388.392 301.917 388.486 302.073 388.48L307.398 388.32C307.554 388.317 307.688 388.212 307.737 388.062L309.058 383.82C311.063 383.286 312.996 382.431 314.777 381.251L318.823 383.074C318.967 383.139 319.133 383.103 319.237 382.992L322.889 379.112C322.997 378.998 323.019 378.832 322.948 378.691L320.884 374.762C321.953 372.917 322.693 370.934 323.108 368.9L327.262 367.325C327.408 367.269 327.503 367.129 327.496 366.973L327.337 361.648C327.333 361.492 327.229 361.358 327.079 361.312L322.837 359.992C322.302 357.986 321.448 356.053 320.268 354.273L322.09 350.226C322.155 350.083 322.12 349.916 322.009 349.812L318.129 346.16C318.014 346.053 317.848 346.03 317.708 346.102L313.779 348.166C311.933 347.096 309.951 346.356 307.916 345.942L306.341 341.788C306.286 341.641 306.146 341.547 305.989 341.553L300.665 341.713C300.508 341.716 300.375 341.82 300.326 341.97L299.005 346.212C297 346.747 295.066 347.601 293.286 348.782L289.24 346.959C289.099 346.894 288.93 346.93 288.826 347.041L285.174 350.921C285.066 351.035 285.043 351.201 285.115 351.341L287.179 355.27C286.109 357.116 285.369 359.098 284.958 361.133L280.804 362.708C280.658 362.763 280.563 362.903 280.57 363.06L280.726 368.385Z" fill="#91B3FA"/>
<path d="M299.39 368.59C298.01 366.793 297.743 364.273 298.914 362.17C300.485 359.349 304.059 358.332 306.879 359.904C309.7 361.475 310.717 365.049 309.145 367.869C307.574 370.69 304 371.707 301.18 370.136C300.462 369.738 299.862 369.206 299.39 368.59ZM301.731 369.154L301.734 369.161L301.731 369.154ZM306.889 362.822C306.599 362.444 306.227 362.118 305.784 361.87C304.046 360.901 301.845 361.528 300.88 363.265C299.911 365.003 300.537 367.204 302.275 368.173C304.013 369.141 306.214 368.515 307.179 366.777C307.903 365.479 307.737 363.927 306.889 362.822Z" fill="#BDD0FB"/>
<path d="M293.038 373.507C292.99 373.442 292.941 373.376 292.892 373.311C292.8 373.187 292.712 373.064 292.624 372.94C292.621 372.936 292.621 372.933 292.618 372.93L294.47 371.655C294.939 372.336 295.487 372.975 296.097 373.549C296.1 373.553 296.1 373.553 296.103 373.556C298.386 375.701 301.363 376.829 304.493 376.735C306.981 376.66 309.325 375.819 311.262 374.335C311.764 373.95 312.24 373.52 312.684 373.05C317.118 368.342 316.896 360.905 312.185 356.467C307.943 352.473 301.483 352.258 297.003 355.698C296.511 356.076 296.041 356.5 295.601 356.966C294.144 358.515 293.133 360.425 292.683 362.489L290.485 362.01C291.023 359.548 292.227 357.269 293.964 355.424C294.489 354.866 295.047 354.364 295.634 353.914C300.975 349.815 308.67 350.07 313.727 354.83C319.335 360.119 319.606 368.981 314.32 374.593C313.795 375.15 313.228 375.662 312.631 376.119C310.323 377.889 307.525 378.893 304.561 378.981C300.828 379.092 297.277 377.746 294.558 375.186C294.007 374.668 293.498 374.104 293.038 373.507Z" fill="#BDD0FB"/>
<g opacity="0.5">
<path d="M336.339 366.467C336.186 366.265 336.137 365.995 336.235 365.74C336.6 364.795 336.998 363.852 337.415 362.936C337.588 362.558 338.032 362.395 338.41 362.564C338.788 362.737 338.951 363.181 338.781 363.559C338.377 364.446 337.989 365.362 337.637 366.282C337.487 366.666 337.053 366.859 336.669 366.709C336.532 366.66 336.421 366.575 336.339 366.467Z" fill="#91B3FA"/>
<path d="M342.352 355.316C342.156 355.062 342.14 354.7 342.336 354.426C343.379 352.962 344.517 351.534 345.714 350.181L346.131 349.711C346.408 349.405 346.881 349.379 347.191 349.656C347.504 349.936 347.523 350.406 347.246 350.716L346.839 351.172C345.678 352.486 344.572 353.875 343.558 355.297C343.317 355.632 342.851 355.711 342.512 355.473C342.45 355.427 342.394 355.375 342.352 355.316ZM353.239 344.132C353.239 344.129 353.236 344.129 353.236 344.126C352.988 343.797 353.053 343.324 353.383 343.076C354.993 341.863 356.692 340.735 358.43 339.724C358.789 339.515 359.245 339.642 359.454 339.995C359.662 340.353 359.542 340.813 359.183 341.018C357.497 342 355.848 343.095 354.286 344.273C353.956 344.52 353.49 344.458 353.239 344.132ZM367.009 336.776C366.963 336.714 366.924 336.646 366.895 336.568C366.758 336.176 366.963 335.749 367.354 335.612C369.252 334.95 371.212 334.393 373.178 333.956C373.582 333.865 373.983 334.122 374.071 334.527C374.162 334.931 373.908 335.332 373.504 335.42C371.593 335.844 369.692 336.385 367.85 337.031C367.537 337.135 367.201 337.024 367.009 336.776ZM382.36 333.943C382.268 333.822 382.21 333.672 382.206 333.509C382.193 333.095 382.519 332.75 382.933 332.74C384.945 332.681 386.98 332.74 388.982 332.916C389.393 332.952 389.699 333.314 389.663 333.728C389.627 334.139 389.262 334.445 388.851 334.409C386.905 334.24 384.929 334.181 382.976 334.24C382.725 334.243 382.5 334.129 382.36 333.943ZM397.844 335.876C397.704 335.694 397.649 335.453 397.717 335.215C397.831 334.817 398.245 334.585 398.643 334.699C400.577 335.25 402.497 335.922 404.352 336.698C404.734 336.858 404.913 337.298 404.753 337.68C404.594 338.061 404.153 338.24 403.772 338.081C401.972 337.327 400.107 336.675 398.229 336.141C398.072 336.092 397.939 335.997 397.844 335.876ZM412.005 342.417C411.816 342.169 411.793 341.821 411.976 341.547C412.204 341.201 412.67 341.11 413.016 341.338C414.685 342.45 416.312 343.676 417.851 344.98C418.171 345.247 418.207 345.72 417.939 346.037C417.672 346.353 417.199 346.392 416.883 346.125C415.389 344.856 413.811 343.666 412.188 342.587C412.116 342.538 412.054 342.479 412.005 342.417ZM426.997 357.798C426.984 357.778 426.968 357.758 426.958 357.739C425.918 356.082 424.777 354.478 423.548 352.952C423.303 352.603 423.339 352.157 423.662 351.899C423.984 351.638 424.454 351.69 424.715 352.013C425.983 353.588 427.157 355.238 428.23 356.943C428.451 357.295 428.344 357.755 427.995 357.977C427.659 358.186 427.229 358.101 426.997 357.798Z" fill="#91B3FA"/>
<path d="M432.341 369.321C432.289 369.252 432.25 369.177 432.221 369.092C431.921 368.157 431.591 367.221 431.243 366.308C431.093 365.923 431.285 365.486 431.673 365.339C432.058 365.189 432.495 365.385 432.641 365.77C433.003 366.709 433.342 367.674 433.652 368.639C433.779 369.034 433.561 369.454 433.166 369.581C432.853 369.679 432.527 369.565 432.341 369.321Z" fill="#91B3FA"/>
</g>
<g opacity="0.5">
<path d="M428.223 409.808C428.047 409.576 428.011 409.253 428.164 408.983C428.647 408.128 429.11 407.248 429.537 406.368C429.72 405.996 430.166 405.843 430.538 406.022C430.913 406.201 431.063 406.651 430.884 407.023C430.44 407.929 429.964 408.836 429.469 409.716C429.266 410.078 428.807 410.205 428.448 410C428.357 409.954 428.282 409.886 428.223 409.808Z" fill="#91B3FA"/>
<path d="M342.557 414.656C342.554 414.649 342.547 414.646 342.544 414.64C341.38 413.032 340.304 411.343 339.339 409.618C339.137 409.256 339.267 408.8 339.626 408.598C339.988 408.396 340.448 408.52 340.646 408.888C341.582 410.561 342.629 412.201 343.757 413.763C343.998 414.098 343.923 414.568 343.588 414.809C343.261 415.044 342.802 414.976 342.557 414.656ZM348.84 421.816C348.622 421.529 348.635 421.119 348.889 420.848C349.173 420.545 349.649 420.532 349.949 420.815C350.366 421.21 350.79 421.598 351.224 421.979C352.238 422.873 353.298 423.737 354.374 424.542C354.706 424.79 354.771 425.259 354.524 425.592C354.276 425.925 353.806 425.99 353.474 425.742C352.368 424.911 351.276 424.024 350.233 423.104C349.786 422.71 349.352 422.312 348.922 421.908C348.893 421.878 348.866 421.849 348.84 421.816ZM361.449 430.581C361.28 430.362 361.24 430.059 361.371 429.795C361.553 429.423 362.003 429.27 362.372 429.453C364.1 430.297 365.893 431.05 367.703 431.693C368.094 431.83 368.296 432.26 368.159 432.648C368.023 433.036 367.592 433.241 367.204 433.104C365.339 432.446 363.494 431.67 361.713 430.799C361.609 430.744 361.518 430.669 361.449 430.581ZM376.099 435.165C375.978 435.009 375.92 434.807 375.952 434.595C376.014 434.187 376.396 433.903 376.807 433.965C378.704 434.255 380.641 434.438 382.562 434.51C382.976 434.526 383.298 434.872 383.282 435.286C383.266 435.7 382.92 436.023 382.506 436.006C380.527 435.935 378.535 435.746 376.582 435.446C376.383 435.42 376.213 435.315 376.099 435.165ZM391.453 435.181C391.378 435.084 391.326 434.966 391.307 434.836C391.245 434.428 391.525 434.044 391.936 433.982C393.84 433.695 395.744 433.294 397.596 432.791C397.994 432.684 398.408 432.919 398.516 433.32C398.623 433.721 398.389 434.132 397.987 434.239C396.08 434.758 394.117 435.168 392.158 435.465C391.88 435.508 391.613 435.39 391.453 435.181ZM406.119 430.633C406.09 430.594 406.064 430.551 406.041 430.503C405.859 430.131 406.015 429.681 406.387 429.502C408.115 428.66 409.814 427.711 411.434 426.675C411.783 426.453 412.249 426.544 412.468 426.903C412.69 427.252 412.588 427.715 412.24 427.936C410.57 429.003 408.822 429.984 407.042 430.848C406.716 431.008 406.331 430.91 406.119 430.633ZM418.754 421.901C418.523 421.601 418.552 421.167 418.836 420.9C419.941 419.857 421.017 418.745 422.034 417.591C422.295 417.294 422.553 416.997 422.807 416.694C423.075 416.378 423.547 416.335 423.864 416.603C424.18 416.873 424.222 417.343 423.955 417.659C423.694 417.969 423.43 418.275 423.159 418.582C422.113 419.769 421.004 420.913 419.866 421.989C419.566 422.273 419.09 422.26 418.806 421.96C418.784 421.94 418.767 421.921 418.754 421.901Z" fill="#91B3FA"/>
<path d="M335.537 400.958C335.488 400.893 335.449 400.821 335.42 400.74C335.103 399.791 334.81 398.81 334.546 397.828C334.438 397.427 334.676 397.016 335.074 396.912C335.475 396.804 335.886 397.042 335.994 397.44C336.251 398.395 336.535 399.344 336.841 400.267C336.972 400.658 336.76 401.085 336.369 401.216C336.056 401.317 335.726 401.203 335.537 400.958Z" fill="#91B3FA"/>
</g>
<path d="M345.687 389.719C345.694 389.98 345.867 390.208 346.118 390.283L353.219 392.497C354.113 395.852 355.547 399.093 357.523 402.07L354.471 408.846C354.364 409.084 354.419 409.364 354.608 409.54L361.103 415.657C361.293 415.836 361.576 415.875 361.808 415.751L368.388 412.298C371.479 414.092 374.798 415.328 378.202 416.019L380.837 422.974C380.928 423.218 381.166 423.375 381.427 423.368L390.345 423.101C390.605 423.094 390.834 422.922 390.909 422.67L393.123 415.569C396.478 414.675 399.719 413.241 402.696 411.265L409.471 414.317C409.709 414.424 409.99 414.369 410.166 414.18L416.283 407.685C416.462 407.496 416.501 407.212 416.377 406.98L412.924 400.401C414.718 397.309 415.953 393.99 416.645 390.586L423.599 387.952C423.844 387.86 424.001 387.622 423.994 387.361L423.727 378.444C423.72 378.183 423.547 377.954 423.296 377.88L416.195 375.666C415.301 372.31 413.867 369.069 411.891 366.092L414.943 359.317C415.05 359.079 414.995 358.798 414.806 358.622L408.311 352.505C408.121 352.326 407.838 352.287 407.606 352.411L401.026 355.864C397.935 354.071 394.616 352.835 391.212 352.144L388.577 345.189C388.486 344.944 388.248 344.788 387.987 344.794L379.069 345.062C378.809 345.068 378.584 345.241 378.505 345.492L376.291 352.594C372.936 353.487 369.695 354.922 366.718 356.898L359.943 353.846C359.705 353.738 359.424 353.793 359.248 353.983L353.131 360.478C352.952 360.667 352.913 360.95 353.033 361.182L356.486 367.762C354.693 370.853 353.457 374.172 352.766 377.576L345.811 380.211C345.567 380.302 345.41 380.54 345.417 380.801L345.687 389.719Z" fill="#91B3FA"/>
<path d="M377.537 389.601C375.405 386.823 374.994 382.93 376.803 379.683C377.98 377.573 379.907 376.044 382.229 375.382C384.554 374.72 386.996 375.004 389.106 376.177C391.215 377.351 392.744 379.282 393.406 381.603C394.068 383.928 393.785 386.37 392.607 388.48C390.182 392.836 384.661 394.408 380.302 391.982C379.193 391.369 378.264 390.55 377.537 389.601ZM380.853 391.003L380.856 391.01L380.853 391.003ZM390.1 379.943C389.542 379.216 388.838 378.607 388.013 378.147C386.429 377.263 384.593 377.051 382.845 377.547C381.097 378.043 379.65 379.19 378.766 380.778C376.943 384.052 378.124 388.199 381.397 390.022C384.671 391.845 388.819 390.664 390.641 387.391C391.525 385.803 391.737 383.97 391.241 382.223C391.003 381.385 390.615 380.615 390.1 379.943Z" fill="#BDD0FB"/>
<path d="M366.904 397.828C366.823 397.72 366.741 397.613 366.66 397.505C366.656 397.502 366.653 397.499 366.65 397.492C366.65 397.492 366.65 397.492 366.65 397.489C366.506 397.293 366.363 397.094 366.226 396.895L368.078 395.62C368.9 396.811 369.852 397.919 370.908 398.917C370.931 398.936 370.95 398.956 370.973 398.976C374.778 402.53 379.689 404.463 384.87 404.466C385.082 404.466 385.294 404.463 385.506 404.457C389.833 404.326 393.915 402.866 397.283 400.28C398.154 399.611 398.979 398.868 399.748 398.053C407.459 389.862 407.068 376.931 398.881 369.213C394.913 365.476 389.728 363.51 384.28 363.673C379.953 363.803 375.871 365.264 372.503 367.85C371.632 368.518 370.807 369.262 370.041 370.077C367.504 372.77 365.75 376.093 364.964 379.686L362.766 379.207C363.64 375.216 365.59 371.525 368.404 368.538C369.252 367.638 370.158 366.82 371.11 366.089C379.764 359.447 392.232 359.861 400.423 367.576C409.514 376.138 409.947 390.501 401.385 399.595C400.534 400.502 399.618 401.327 398.649 402.07C394.909 404.939 390.377 406.563 385.574 406.707C379.526 406.889 373.771 404.705 369.366 400.557C368.472 399.713 367.647 398.8 366.904 397.828Z" fill="#BDD0FB"/>
<defs>
<linearGradient id="paint0_linear_81_189" x1="-35.2635" y1="559.576" x2="714.044" y2="15.4361" gradientUnits="userSpaceOnUse">
<stop stop-color="#DAE3FE"/>
<stop offset="1" stop-color="#E9EFFD"/>
</linearGradient>
<linearGradient id="paint1_linear_81_189" x1="99.4685" y1="416.091" x2="175.707" y2="416.091" gradientUnits="userSpaceOnUse">
<stop stop-color="#DAE3FE"/>
<stop offset="1" stop-color="#E9EFFD"/>
</linearGradient>
<linearGradient id="paint2_linear_81_189" x1="175.686" y1="111.094" x2="247.828" y2="111.094" gradientUnits="userSpaceOnUse">
<stop stop-color="#DAE3FE"/>
<stop offset="1" stop-color="#E9EFFD"/>
</linearGradient>
<linearGradient id="paint3_linear_81_189" x1="527.195" y1="223.724" x2="589.246" y2="223.724" gradientUnits="userSpaceOnUse">
<stop stop-color="#DAE3FE"/>
<stop offset="1" stop-color="#E9EFFD"/>
</linearGradient>
<linearGradient id="paint4_linear_81_189" x1="555.634" y1="416.091" x2="631.872" y2="416.091" gradientUnits="userSpaceOnUse">
<stop stop-color="#DAE3FE"/>
<stop offset="1" stop-color="#E9EFFD"/>
</linearGradient>
<linearGradient id="paint5_linear_81_189" x1="404.852" y1="159.301" x2="326.589" y2="58.5385" gradientUnits="userSpaceOnUse">
<stop stop-color="#FE7062"/>
<stop offset="1" stop-color="#FF928E"/>
</linearGradient>
<linearGradient id="paint6_linear_81_189" x1="429.5" y1="95.7498" x2="436.348" y2="-65.6665" gradientUnits="userSpaceOnUse">
<stop stop-color="#FE7062"/>
<stop offset="1" stop-color="#FF928E"/>
</linearGradient>
<linearGradient id="paint7_linear_81_189" x1="341.599" y1="73.2811" x2="288.772" y2="202.414" gradientUnits="userSpaceOnUse">
<stop stop-color="#FE7062"/>
<stop offset="1" stop-color="#FF928E"/>
</linearGradient>
<linearGradient id="paint8_linear_81_189" x1="393.92" y1="251.179" x2="525.009" y2="230.635" gradientUnits="userSpaceOnUse">
<stop stop-color="#FE7062"/>
<stop offset="1" stop-color="#FF928E"/>
</linearGradient>
<linearGradient id="paint9_linear_81_189" x1="373.244" y1="313.427" x2="442.701" y2="231.252" gradientUnits="userSpaceOnUse">
<stop stop-color="#FE7062"/>
<stop offset="1" stop-color="#FF928E"/>
</linearGradient>
<linearGradient id="paint10_linear_81_189" x1="479.448" y1="192.248" x2="495.1" y2="6.37536" gradientUnits="userSpaceOnUse">
<stop stop-color="#FE7062"/>
<stop offset="1" stop-color="#FF928E"/>
</linearGradient>
<linearGradient id="paint11_linear_81_189" x1="312.365" y1="185.593" x2="234.102" y2="367.553" gradientUnits="userSpaceOnUse">
<stop stop-color="#FE7062"/>
<stop offset="1" stop-color="#FF928E"/>
</linearGradient>
<linearGradient id="paint12_linear_81_189" x1="274.021" y1="169.101" x2="195.759" y2="351.061" gradientUnits="userSpaceOnUse">
<stop stop-color="#FE7062"/>
<stop offset="1" stop-color="#FF928E"/>
</linearGradient>
<linearGradient id="paint13_linear_81_189" x1="323.29" y1="278.275" x2="484.706" y2="268.492" gradientUnits="userSpaceOnUse">
<stop stop-color="#FE7062"/>
<stop offset="1" stop-color="#FF928E"/>
</linearGradient>
<linearGradient id="paint14_linear_81_189" x1="517.612" y1="41.4654" x2="510.439" y2="69.6153" gradientUnits="userSpaceOnUse">
<stop stop-color="#4042E2"/>
<stop offset="1" stop-color="#4F52FF"/>
</linearGradient>
<linearGradient id="paint15_linear_81_189" x1="-1371.62" y1="167.084" x2="-1404.6" y2="165.21" gradientUnits="userSpaceOnUse">
<stop stop-color="#4042E2"/>
<stop offset="1" stop-color="#4F52FF"/>
</linearGradient>
<linearGradient id="paint16_linear_81_189" x1="466.388" y1="265.791" x2="460.606" y2="265.791" gradientUnits="userSpaceOnUse">
<stop stop-color="#FF928E"/>
<stop offset="1" stop-color="#FEB3B1"/>
</linearGradient>
<linearGradient id="paint17_linear_81_189" x1="561.823" y1="52.7308" x2="554.649" y2="80.8807" gradientUnits="userSpaceOnUse">
<stop stop-color="#4042E2"/>
<stop offset="1" stop-color="#4F52FF"/>
</linearGradient>
<linearGradient id="paint18_linear_81_189" x1="-1389.82" y1="-7.51585" x2="-1406.5" y2="-9.95198" gradientUnits="userSpaceOnUse">
<stop stop-color="#4042E2"/>
<stop offset="1" stop-color="#4F52FF"/>
</linearGradient>
<linearGradient id="paint19_linear_81_189" x1="503.144" y1="260.972" x2="496.234" y2="260.972" gradientUnits="userSpaceOnUse">
<stop stop-color="#FF928E"/>
<stop offset="1" stop-color="#FEB3B1"/>
</linearGradient>
<linearGradient id="paint20_linear_81_189" x1="519.149" y1="281.177" x2="428.381" y2="178.484" gradientUnits="userSpaceOnUse">
<stop stop-color="#09005D"/>
<stop offset="1" stop-color="#1A0F91"/>
</linearGradient>
<linearGradient id="paint21_linear_81_189" x1="433.323" y1="128.366" x2="486.797" y2="181.622" gradientUnits="userSpaceOnUse">
<stop stop-color="#4042E2"/>
<stop offset="1" stop-color="#4F52FF"/>
</linearGradient>
<linearGradient id="paint22_linear_81_189" x1="470.36" y1="188.889" x2="511.442" y2="145.852" gradientUnits="userSpaceOnUse">
<stop stop-color="#09005D"/>
<stop offset="1" stop-color="#1A0F91"/>
</linearGradient>
<linearGradient id="paint23_linear_81_189" x1="559.33" y1="410.123" x2="546.94" y2="372.083" gradientUnits="userSpaceOnUse">
<stop stop-color="#FF928E"/>
<stop offset="1" stop-color="#FEB3B1"/>
</linearGradient>
<linearGradient id="paint24_linear_81_189" x1="447.311" y1="114.321" x2="500.785" y2="167.578" gradientUnits="userSpaceOnUse">
<stop stop-color="#4042E2"/>
<stop offset="1" stop-color="#4F52FF"/>
</linearGradient>
<linearGradient id="paint25_linear_81_189" x1="419.893" y1="141.851" x2="473.367" y2="195.108" gradientUnits="userSpaceOnUse">
<stop stop-color="#4042E2"/>
<stop offset="1" stop-color="#4F52FF"/>
</linearGradient>
<linearGradient id="paint26_linear_81_189" x1="417.947" y1="110.591" x2="414.034" y2="123.199" gradientUnits="userSpaceOnUse">
<stop stop-color="#FF928E"/>
<stop offset="1" stop-color="#FEB3B1"/>
</linearGradient>
<linearGradient id="paint27_linear_81_189" x1="438.265" y1="108.078" x2="448.482" y2="130.902" gradientUnits="userSpaceOnUse">
<stop stop-color="#FF928E"/>
<stop offset="1" stop-color="#FEB3B1"/>
</linearGradient>
<linearGradient id="paint28_linear_81_189" x1="477.412" y1="111.927" x2="460.891" y2="110.406" gradientUnits="userSpaceOnUse">
<stop stop-color="#FF928E"/>
<stop offset="1" stop-color="#FEB3B1"/>
</linearGradient>
<linearGradient id="paint29_linear_81_189" x1="445.127" y1="112.557" x2="425.524" y2="104.305" gradientUnits="userSpaceOnUse">
<stop stop-color="#09005D"/>
<stop offset="1" stop-color="#1A0F91"/>
</linearGradient>
<linearGradient id="paint30_linear_81_189" x1="451.596" y1="129.355" x2="444.118" y2="110.31" gradientUnits="userSpaceOnUse">
<stop stop-color="#FF928E"/>
<stop offset="1" stop-color="#FEB3B1"/>
</linearGradient>
<linearGradient id="paint31_linear_81_189" x1="547.219" y1="414.069" x2="534.829" y2="376.028" gradientUnits="userSpaceOnUse">
<stop stop-color="#FF928E"/>
<stop offset="1" stop-color="#FEB3B1"/>
</linearGradient>
<linearGradient id="paint32_linear_81_189" x1="226.777" y1="495.427" x2="211.511" y2="317.01" gradientUnits="userSpaceOnUse">
<stop stop-color="#FF928E"/>
<stop offset="1" stop-color="#FEB3B1"/>
</linearGradient>
<linearGradient id="paint33_linear_81_189" x1="243.686" y1="421.716" x2="226.894" y2="446.659" gradientUnits="userSpaceOnUse">
<stop stop-color="#09005D"/>
<stop offset="1" stop-color="#1A0F91"/>
</linearGradient>
<linearGradient id="paint34_linear_81_189" x1="215.18" y1="495.408" x2="199.914" y2="316.992" gradientUnits="userSpaceOnUse">
<stop stop-color="#FF928E"/>
<stop offset="1" stop-color="#FEB3B1"/>
</linearGradient>
<linearGradient id="paint35_linear_81_189" x1="202.533" y1="401.705" x2="220.901" y2="356.274" gradientUnits="userSpaceOnUse">
<stop stop-color="#09005D"/>
<stop offset="1" stop-color="#1A0F91"/>
</linearGradient>
<linearGradient id="paint36_linear_81_189" x1="222.934" y1="328.415" x2="247.932" y2="307.765" gradientUnits="userSpaceOnUse">
<stop stop-color="#FF928E"/>
<stop offset="1" stop-color="#FEB3B1"/>
</linearGradient>
<linearGradient id="paint37_linear_81_189" x1="206.689" y1="263.719" x2="208.905" y2="299.396" gradientUnits="userSpaceOnUse">
<stop stop-color="#09005D"/>
<stop offset="1" stop-color="#1A0F91"/>
</linearGradient>
<linearGradient id="paint38_linear_81_189" x1="217.866" y1="399.384" x2="215.094" y2="421.23" gradientUnits="userSpaceOnUse">
<stop stop-color="#09005D"/>
<stop offset="1" stop-color="#1A0F91"/>
</linearGradient>
<linearGradient id="paint39_linear_81_189" x1="213.731" y1="324.083" x2="206.769" y2="388.681" gradientUnits="userSpaceOnUse">
<stop stop-color="#4042E2"/>
<stop offset="1" stop-color="#4F52FF"/>
</linearGradient>
<linearGradient id="paint40_linear_81_189" x1="219.333" y1="286.717" x2="215.421" y2="313.345" gradientUnits="userSpaceOnUse">
<stop stop-color="#FF928E"/>
<stop offset="1" stop-color="#FEB3B1"/>
</linearGradient>
<linearGradient id="paint41_linear_81_189" x1="205.035" y1="336.177" x2="185.986" y2="336.177" gradientUnits="userSpaceOnUse">
<stop stop-color="#FF928E"/>
<stop offset="1" stop-color="#FEB3B1"/>
</linearGradient>
<linearGradient id="paint42_linear_81_189" x1="-614.526" y1="1410.49" x2="-602.195" y2="1393.96" gradientUnits="userSpaceOnUse">
<stop stop-color="#FF928E"/>
<stop offset="1" stop-color="#FEB3B1"/>
</linearGradient>
<linearGradient id="paint43_linear_81_189" x1="228.845" y1="269.313" x2="207.554" y2="295.541" gradientUnits="userSpaceOnUse">
<stop stop-color="#09005D"/>
<stop offset="1" stop-color="#1A0F91"/>
</linearGradient>
<linearGradient id="paint44_linear_81_189" x1="-619.003" y1="1407.15" x2="-606.671" y2="1390.62" gradientUnits="userSpaceOnUse">
<stop stop-color="#FF928E"/>
<stop offset="1" stop-color="#FEB3B1"/>
</linearGradient>
<linearGradient id="paint45_linear_81_189" x1="362.042" y1="191.016" x2="407.036" y2="125.97" gradientUnits="userSpaceOnUse">
<stop stop-color="#4042E2"/>
<stop offset="1" stop-color="#4F52FF"/>
</linearGradient>
<linearGradient id="paint46_linear_81_189" x1="408.351" y1="33.9583" x2="392.701" y2="53.521" gradientUnits="userSpaceOnUse">
<stop stop-color="#09005D"/>
<stop offset="1" stop-color="#1A0F91"/>
</linearGradient>
<linearGradient id="paint47_linear_81_189" x1="379.839" y1="57.7599" x2="373.97" y2="84.6586" gradientUnits="userSpaceOnUse">
<stop stop-color="#09005D"/>
<stop offset="1" stop-color="#1A0F91"/>
</linearGradient>
<linearGradient id="paint48_linear_81_189" x1="310.947" y1="340.662" x2="363.766" y2="219.863" gradientUnits="userSpaceOnUse">
<stop stop-color="#09005D"/>
<stop offset="1" stop-color="#1A0F91"/>
</linearGradient>
</defs>
</svg>
