<?xml version="1.0" standalone="no"?>
<!DOCTYPE svg PUBLIC "-//W3C//DTD SVG 20010904//EN"
 "http://www.w3.org/TR/2001/REC-SVG-20010904/DTD/svg10.dtd">
<svg version="1.0" xmlns="http://www.w3.org/2000/svg"
 width="800.000000pt" height="800.000000pt" viewBox="0 0 800.000000 800.000000"
 preserveAspectRatio="xMidYMid meet">
<metadata>
Created by potrace 1.14, written by Peter Selinger 2001-2017
</metadata>
<g transform="translate(0.000000,800.000000) scale(0.100000,-0.100000)"
fill="#000000" stroke="none">
<path d="M2818 7786 c-92 -25 -166 -89 -215 -185 -28 -54 -28 -56 -28 -255 0
-200 0 -201 28 -258 36 -73 96 -133 167 -167 l55 -26 1175 0 c646 0 1184 2
1195 5 89 24 178 99 222 188 28 57 28 58 28 257 0 199 0 200 -28 257 -36 73
-96 133 -167 167 l-55 26 -1165 2 c-919 1 -1175 -1 -1212 -11z"/>
<path d="M1570 6416 c-91 -24 -164 -84 -216 -178 l-29 -53 0 -205 0 -205 29
-58 c36 -73 92 -130 164 -165 l57 -27 2435 0 2435 0 57 28 c72 36 133 96 167
167 25 54 26 59 26 255 0 186 -2 203 -22 248 -37 79 -92 135 -172 174 l-56 28
-2415 2 c-1887 1 -2425 -1 -2460 -11z"/>
<path d="M1568 4816 c-91 -25 -170 -92 -215 -185 -28 -55 -28 -58 -28 -256 0
-198 0 -200 28 -257 35 -72 93 -130 165 -165 l57 -28 2435 0 2435 0 57 28 c72
36 133 96 167 167 25 54 26 59 26 255 0 186 -2 203 -22 248 -37 79 -93 136
-173 175 l-55 27 -2415 2 c-1925 1 -2425 -1 -2462 -11z"/>
<path d="M1565 3206 c-96 -30 -172 -96 -214 -186 -25 -53 -26 -61 -26 -255 0
-198 0 -201 27 -256 36 -72 94 -131 166 -166 l57 -28 2435 0 2435 0 57 28 c74
36 129 91 164 163 l29 59 0 200 c0 198 0 201 -27 256 -36 72 -94 131 -166 166
l-57 28 -2420 2 c-1929 1 -2428 -1 -2460 -11z"/>
<path d="M1577 1609 c-93 -22 -182 -96 -226 -189 -24 -52 -26 -66 -29 -230 -4
-199 6 -257 60 -332 43 -60 74 -86 138 -116 l55 -27 2435 0 2435 0 55 27 c72
35 136 99 169 168 25 54 26 60 26 255 0 198 0 200 -28 257 -35 72 -97 134
-167 167 l-55 26 -2415 2 c-1385 0 -2431 -3 -2453 -8z"/>
</g>
</svg>
