<svg width="104" height="104" viewBox="0 0 104 104" fill="none" xmlns="http://www.w3.org/2000/svg">
<circle cx="51.8153" cy="51.9205" r="51.5623" fill="#AB7CE0"/>
<mask id="mask0_0_2369" style="mask-type:luminance" maskUnits="userSpaceOnUse" x="0" y="0" width="104" height="104">
<circle cx="51.8153" cy="51.9205" r="51.5623" fill="white"/>
</mask>
<g mask="url(#mask0_0_2369)">
<path d="M72.8504 86.6244C72.8504 86.6244 72.6155 65.0217 85.311 53.7032L52.2326 47.2655V83.8205L72.8504 86.6244Z" fill="#FB98A3"/>
<mask id="mask1_0_2369" style="mask-type:luminance" maskUnits="userSpaceOnUse" x="52" y="47" width="34" height="40">
<path fill-rule="evenodd" clip-rule="evenodd" d="M72.8504 86.6244C72.8504 86.6244 72.6155 65.0217 85.311 53.7032L52.2326 47.2655V83.8205L72.8504 86.6244Z" fill="white"/>
</mask>
<g mask="url(#mask1_0_2369)">
<path d="M67.7545 53.1379C68.5589 59.5247 69.7941 62.3211 74.1664 64.502C78.5388 66.6829 70.2997 76.4703 70.2997 76.4703L86.012 70.2665L83.5782 56.7425L67.7545 53.1379Z" fill="#EB5F76"/>
</g>
<path d="M57.6959 53.7819C48.689 45.5685 45.6735 33.5771 50.9618 26.9985C56.2502 20.4198 67.837 21.7446 76.8441 29.9577C85.8513 38.1709 88.8665 50.1625 83.5782 56.7414C80.4858 60.5891 75.238 61.7331 69.6119 60.3768" fill="#FB98A3"/>
<path d="M28.2191 53.1379C28.0515 58.3763 23.6749 62.4902 18.4362 62.3336C13.2279 62.4101 8.89814 58.3409 8.65165 53.1379C8.64815 50.5941 9.69791 48.1623 11.5516 46.4202C13.4053 44.6781 15.8974 43.7811 18.4362 43.9423C23.6749 43.7856 28.0515 47.8996 28.2191 53.1379Z" fill="#F3CF57"/>
<mask id="mask2_0_2369" style="mask-type:luminance" maskUnits="userSpaceOnUse" x="8" y="43" width="21" height="20">
<path fill-rule="evenodd" clip-rule="evenodd" d="M28.2191 53.1379C28.0515 58.3763 23.6749 62.4902 18.4362 62.3336C13.2279 62.4101 8.89816 58.3409 8.65167 53.1379C8.64817 50.5941 9.69793 48.1623 11.5516 46.4202C13.4053 44.6781 15.8975 43.7811 18.4362 43.9423C23.6749 43.7856 28.0515 47.8996 28.2191 53.1379Z" fill="white"/>
</mask>
<g mask="url(#mask2_0_2369)">
<rect x="23.6744" y="43.9423" width="6.47343" height="19.2095" fill="#B044BF"/>
</g>
<path d="M60.8566 217.802C60.8566 217.802 79.3527 188.876 81.2767 162.093C79.3527 165.197 91.2187 163.147 91.2187 163.147C91.2187 163.147 111.422 152.899 109.461 122.659C108.325 105.142 100.983 95.5497 79.0324 82.1889L48.8692 84.9197C48.8692 84.9197 18.872 152.556 -7.55511 153.923L60.8566 217.802Z" fill="#719BFB"/>
<path d="M78.4887 245.227H118.477C120.54 244.458 120.163 233.457 94.1313 235.249C92.8264 221.912 92.2091 208.516 92.2818 195.116C92.5888 182.327 92.004 178.206 92.2773 173.098C93.0631 158.42 97.8644 88.0012 73.0739 89.993C42.4939 92.4501 63.3506 170.536 63.9593 177.459C64.568 184.381 72.6844 232.756 72.6844 232.756C72.9909 236.242 75.1991 245.227 78.4887 245.227Z" fill="#FB98A3"/>
<path d="M45.2069 73.6701L48.8682 84.9192L79.0308 82.1884L76.5732 75.8123L45.2069 73.6701Z" fill="white"/>
<path d="M45.4394 145.979C46.1441 146.297 58.8985 146.989 72.6844 147.044C87.7994 147.103 92.6832 145.897 99.5562 143.529C99.5562 143.529 106.998 85.6143 69.7482 88.0775C41.11 89.9713 45.4394 145.979 45.4394 145.979Z" fill="#719BFB"/>
<path d="M59.7617 53.1379C56.3981 67.4666 65.1237 76.4703 51.6896 76.4703C38.2555 76.4703 26.4913 67.9268 26.4913 50.9091C26.5263 35.8221 37.9524 23.1992 52.9614 21.6664C68.7705 19.639 63.6372 36.6287 59.7617 53.1379Z" fill="#F3CF57"/>
<path d="M64.3114 57.7545C62.6943 58.7209 60.8425 59.2238 58.9586 59.2081C54.0319 59.2081 50.0379 55.953 50.0379 51.9375C50.0379 47.922 54.0319 44.6668 58.9586 44.6668C60.627 44.6562 62.2735 45.0472 63.7589 45.8068" fill="#FB98A3"/>
<path d="M27.1165 39.0561C27.4688 38.4943 27.8588 37.9566 28.2504 37.4261C29.2664 36.0533 30.355 34.7355 31.5113 33.4785C33.1141 31.7237 34.8531 30.0984 36.7122 28.6178C38.8275 26.9169 41.1362 25.4714 43.5902 24.3115C46.2049 23.0741 49.0127 22.2946 51.8911 22.0071C52.2464 21.9744 52.6027 21.9482 52.959 21.9333C53.1064 21.9275 53.6085 21.9251 53.6109 21.6741C53.6133 21.4355 53.0921 21.3949 52.9643 21.3999C49.8742 21.5299 46.8299 22.1937 43.9661 23.3618C41.3523 24.4432 38.8849 25.8493 36.6223 27.547C34.6162 29.0451 32.7397 30.7092 31.0124 32.5217C29.7138 33.8731 28.4943 35.2983 27.3598 36.7901C27.0095 37.2513 26.6686 37.7196 26.337 38.1953C26.1666 38.4048 26.0157 38.6295 25.8863 38.8665L25.8667 38.8976C25.6798 39.1958 26.907 39.3888 27.1172 39.0537L27.1165 39.0561Z" fill="#F3CF57"/>
<rect x="70.6107" y="33.8698" width="3.50409" height="6.46282" rx="1.57672" transform="rotate(-38.1116 70.6107 33.8698)" fill="#0B2658"/>
<path d="M69.5984 27.2145C65.2897 30.296 65.7168 32.7492 68.5361 30.9986C71.3554 29.248 72.4135 25.2012 69.5984 27.2145Z" fill="#0B2658"/>
<path d="M77.806 32.5477C85.43 31.8197 87.4338 38.6338 82.9188 40.1251L77.806 32.5477Z" fill="#FB98A3"/>
<ellipse opacity="0.27" cx="70.1765" cy="42.782" rx="5.38034" ry="3.8612" transform="rotate(-27.2786 70.1765 42.782)" fill="#EB5F76"/>
<path d="M76.0517 43.5008C76.8159 43.9656 77.6647 44.2744 78.5489 44.4091" stroke="#EB637B" stroke-width="1.78956" stroke-linecap="round" stroke-linejoin="round"/>
</g>
</svg>
