<svg xmlns="http://www.w3.org/2000/svg" viewBox="0 0 500 500"><g id="freepik--background-complete--inject-29"><path d="M337.67,223.67s26.58-13.55,35.7-9.7S399,250.15,406.42,255.5c8.58,6.2,20.89,20.85,30.58,38.76s11,53.56,11,53.56H381.67Z" style="fill:#e6e6e6"></path><path d="M194.23,266s-30.92-18-44.24-25.55-47.68,37.84-67.83,41.67-26.63,66.73-26.63,66.73h126Z" style="fill:#e0e0e0"></path><path d="M238.5,261S219,244.67,208.74,241.58,161,274.29,146,274.14s-52.34,16.42-52.34,16.42L64,348.89H194.84Z" style="fill:#e6e6e6"></path><path d="M444.71,349.14H264a5.87,5.87,0,0,1-5.86-5.86V80A5.87,5.87,0,0,1,264,74.15H444.71A5.87,5.87,0,0,1,450.57,80V343.28A5.87,5.87,0,0,1,444.71,349.14ZM264,74.4A5.61,5.61,0,0,0,258.35,80V343.28a5.61,5.61,0,0,0,5.61,5.61H444.71a5.61,5.61,0,0,0,5.61-5.61V80a5.61,5.61,0,0,0-5.61-5.61Z" style="fill:#f0f0f0"></path><path d="M236.28,349.14H55.53a5.87,5.87,0,0,1-5.86-5.86V80a5.87,5.87,0,0,1,5.86-5.86H236.28A5.87,5.87,0,0,1,242.14,80V343.28A5.87,5.87,0,0,1,236.28,349.14ZM55.53,74.4A5.61,5.61,0,0,0,49.92,80V343.28a5.61,5.61,0,0,0,5.61,5.61H236.28c3.1,0,5.61-2.51,6.34-6.16V79.45a7,7,0,0,0-6.34-5Z" style="fill:#f0f0f0"></path><rect y="410.21" width="500" height="0.25" style="fill:#f0f0f0"></rect><path d="M435.57,186.71c-1.68-3.92-5.92-11.25-14.68-13.25-8-1.83-14.07,8.3-19,9s-4.42-1.49-14.36-5.23c-8.5-3.19-14.2,5.11-16.22,9.43Z" style="fill:#f5f5f5"></path><path d="M137.37,146.35s0-8.92-8.76-9.29c-4.19-.18-9.31,3.25-12.54-2.18-3.75-6.29-10.32-10-16.23-7.61-6.53,2.69-10.23,13-16.61,12.17s-18.54-5.09-24.83,6.91Z" style="fill:#f5f5f5"></path><path d="M360.14,106.77s0-8.92-8.76-9.29c-4.19-.18-9.31,3.25-12.54-2.18-3.75-6.3-10.32-10-16.23-7.61-6.53,2.69-10.23,13-16.61,12.17s-18.54-5.09-24.83,6.91Z" style="fill:#f5f5f5"></path><circle cx="202.66" cy="103.12" r="19.75" transform="translate(-24.12 86.55) rotate(-22.79)" style="fill:#fafafa"></circle><path d="M297.87,248.28s-19.46-20.41-26.67-21.6-41.18,29.1-46,32.1-19.3,4.5-24.83,5.5-21.28,7.38-21.78,9.25-16.23,18.94-16.23,18.94-63.3,37.12-74.89,56.46H330Z" style="fill:#f0f0f0"></path></g><g id="freepik--Shadow--inject-29"><path d="M446,447.07c0,3.76-88.72,6.81-198.17,6.81s-198.16-3.05-198.16-6.81,88.72-6.82,198.16-6.82S446,443.3,446,447.07Z" style="fill:#f0f0f0"></path></g><g id="freepik--Flags--inject-29"><polygon points="301.22 207.97 301.22 144.24 300.52 144.22 300.57 207.95 301.22 207.97" style="fill:#263238"></polygon><path d="M301.22,144.34s-4.86-2.46-9.49.29-10.81-.61-10.81-.61c1.12,2.7,3.43,6,5.94,6.69a16.07,16.07,0,0,1-5.94,5.07s5.71,2.94,9.73,0,10.57.59,10.57.59Z" style="fill:#407BFF"></path><polygon points="265.86 244.26 265.86 166.02 265 166 265.06 244.23 265.86 244.26" style="fill:#263238"></polygon><path d="M265.86,166.14s-6-3-11.65.36-13.27-.75-13.27-.75c1.38,3.31,4.21,7.38,7.3,8.22a20,20,0,0,1-7.3,6.23s7,3.6,11.94,0,13,.71,13,.71Z" style="fill:#407BFF"></path><polygon points="225.41 291.38 225.41 198.13 224.39 198.1 224.46 291.35 225.41 291.38" style="fill:#263238"></polygon><path d="M225.41,198.27s-7.11-3.59-13.89.43-15.81-.9-15.81-.9c1.64,3.95,5,8.8,8.7,9.8a23.66,23.66,0,0,1-8.7,7.42s8.36,4.29,14.23,0,15.47.86,15.47.86Z" style="fill:#407BFF"></path><polygon points="330.61 179.98 330.61 121.97 329.97 121.95 330.02 179.96 330.61 179.98" style="fill:#263238"></polygon><path d="M330.61,122.06s-4.43-2.24-8.64.26-9.84-.56-9.84-.56c1,2.46,3.12,5.48,5.41,6.1a14.73,14.73,0,0,1-5.41,4.62s5.2,2.67,8.86,0,9.62.53,9.62.53Z" style="fill:#407BFF"></path></g><g id="freepik--Mountain--inject-29"><path d="M455.9,410.21h-295v0s0,0,0,0,.24-.93.58-2.15c.06-.21.12-.43.18-.67s.1-.35.14-.52.18-.67.29-1a.21.21,0,0,0,0-.06c.62-2.27,1.48-5.29,2.55-8.94.13-.45.27-.91.41-1.38s.29-1,.42-1.47c.32-1,.65-2.14,1-3.29.23-.69.44-1.42.66-2.16s.52-1.68.79-2.55c.18-.57.35-1.17.53-1.74s.31-1,.45-1.48c.26-.79.51-1.59.77-2.43.16-.5.33-1,.49-1.53s.39-1.24.6-1.89c1-3.08,2-6.3,3.14-9.58a1.55,1.55,0,0,0,.08-.23c.44-1.27.87-2.57,1.32-3.87a1.72,1.72,0,0,1,.07-.21l.89-2.58c.33-.92.64-1.84,1-2.78s.6-1.68.91-2.52l1.12-3.13q.94-2.55,1.9-5.12l1.87-4.86.83-2.1c.83-2.09,1.67-4.19,2.53-6.26.29-.68.57-1.37.86-2,1.15-2.74,2.33-5.43,3.52-8q1.26-2.78,2.55-5.43c1.57-3.25,3.17-6.36,4.79-9.27,6.83-12.32,14-21.22,20.88-22.92,5.09-1.25,10.57-5.15,16.23-10.65,1.93-1.86,3.88-3.92,5.84-6.13h0c14.2-15.91,29.16-39.35,41.93-54.84l18.21-13.18a20.35,20.35,0,0,0,2.61-2.7c4.51-5.09,13.35-15.89,16.22-19.51,2.55-2.55,7.89-3.66,14.16-4.29,8,7,26.55,32.86,41.34,59.82,2,3.63,16.37,19.57,18.66,23.08.89,1.36,1.74,2.75,2.57,4.16,11.62,19.86,17.51,44.16,32,59.25,1.66,1.74,4,2.17,5.79,3.75a29.65,29.65,0,0,1,3.9,4.2A58.15,58.15,0,0,1,447,345.38C456.37,372.21,455.9,410.21,455.9,410.21Z" style="fill:#263238"></path><path d="M230.62,290.28S260,317.56,269,322.22s41.17-22.91,41.17-22.91,7.19-5.05,1.67-7.38-25.66,9.29-38.69,10.92c-9.31,1.17-20.84-8.2-22.84-8.59S230.62,290.28,230.62,290.28Z" style="fill:#fff;opacity:0.1"></path><path d="M347.15,219.23l-29,1.23c-12,.52-30.49-2-35.12-6.14l18.21-13.18a20.35,20.35,0,0,0,2.61-2.7c4.84,5.4,13.34,14.6,15.8,15.35C323.15,214.86,347.15,219.23,347.15,219.23Z" style="fill:#fff;opacity:0.1"></path><path d="M438.5,328.9c-15.53,3-30.63,7.74-49.3,6.18-31.27-2.62-67.1-.84-65.08-7.7s7.57-28.18,30.27-27.95c12.86.12,31.66-21.1,42.41-37.73,11.62,19.86,17.51,44.16,32,59.25,1.66,1.74,4,2.17,5.79,3.75A29.65,29.65,0,0,1,438.5,328.9Z" style="opacity:0.2"></path><path d="M455.9,410.21h-295v0l.58-2.17c.07-.21.12-.43.18-.66a4.42,4.42,0,0,0,.14-.52c.1-.33.19-.67.29-1a.13.13,0,0,0,0-.05c.63-2.26,1.5-5.3,2.55-8.93.14-.46.27-.92.41-1.4s.29-1,.43-1.46c.32-1,.64-2.15,1-3.28.23-.71.44-1.42.66-2.17s.52-1.68.79-2.55c.18-.58.35-1.16.53-1.74s.31-1,.46-1.48c.25-.79.51-1.59.76-2.43.16-.51.33-1,.49-1.52s.39-1.26.61-1.89c1-3.08,2-6.29,3.13-9.59a1.55,1.55,0,0,0,.08-.23l1.32-3.87a.76.76,0,0,1,.08-.21c.28-.85.58-1.71.88-2.57l1-2.79q.43-1.25.9-2.52l1.12-3.13q.94-2.55,1.91-5.12c.61-1.62,1.24-3.25,1.87-4.86.27-.71.55-1.41.82-2.1q1.25-3.15,2.53-6.26c.29-.68.58-1.37.86-2.05,1.15-2.73,2.33-5.42,3.52-8q1.26-2.78,2.55-5.43c1.57-3.25,3.18-6.35,4.79-9.27,10.63,0,24.8,2.64,37.22,14,14.52,13.27,23.68,40.89,57,37.41s60.17,3.89,95.18,17.73c27,10.66,53-13.38,59.43-32.64C456.38,372.22,455.9,410.21,455.9,410.21Z" style="opacity:0.2"></path><path d="M243.73,387.84S260.51,369,263.3,369s24.38.65,34.54,0S319.16,380,328.1,387.84s33,15,33,15L365,410H243.73Z" style="fill:#263238"></path><path d="M365,410H243.74V387.84S260.51,369,263.3,369c.58,0,2,0,3.87.06.67,12.07,10.3,21.09,20.84,18.86l.25-.05c4.13-.87,18.16,1.63,22.63,10.08s25.81,7.51,25.81,7.51,19.5,1,27.72,3.5Z" style="opacity:0.2"></path><path d="M266.09,410H72.8s.29-1,.83-2.84c.12-.4.24-.83.38-1.31.56-1.88,1.29-4.32,2.15-7.11q.65-2.1,1.38-4.44c.25-.77.51-1.57.76-2.38l1.19-3.7.42-1.25c2-5.92,4.13-12.19,6.29-17.73.61-1.59,1.24-3.13,1.86-4.58.46-1.09.92-2.13,1.36-3.11s.91-1.91,1.34-2.79c.29-.57.58-1.11.86-1.63a14.63,14.63,0,0,1,3.53-4.66c16.35-11,29.52-24.64,38.91-31.11,11.11-7.66,24.13-10.36,36.33-10.71A200.4,200.4,0,0,1,195,312.57l1.58.26a11.24,11.24,0,0,1,1.24.31,12.55,12.55,0,0,1,2.36,1c.23.13.48.25.71.39a23.09,23.09,0,0,1,3.5,2.6c.64.59,1.3,1.21,2,1.87a.35.35,0,0,0,.09.11c.46.48.91,1,1.35,1.49a66.9,66.9,0,0,1,5.22,6.88c.85,1.25,1.67,2.54,2.5,3.84.39.61.75,1.22,1.14,1.83l1.3,2.16c.42.7.83,1.38,1.23,2.07.22.36.43.74.66,1.11q1.5,2.55,2.92,5a1,1,0,0,0,.15.25c.32.59.66,1.16,1,1.73l.18.3c.59,1,1.17,2,1.75,2.94.39.64.75,1.25,1.14,1.84.93,1.48,1.86,2.88,2.75,4.13.35.48.7,1,1.06,1.41a.83.83,0,0,0,.12.16c.29.4.6.75.9,1.11l.1.11a12.46,12.46,0,0,0,.92,1,6.08,6.08,0,0,0,.53.5,11.62,11.62,0,0,0,1.4,1.09,2.75,2.75,0,0,0,.46.27c.17.09.34.16.51.23a2.32,2.32,0,0,0,.37.13,1.75,1.75,0,0,0,.55.12,13,13,0,0,1,5.09,2.35l1.13.82c.38.28.75.59,1.15.91s.76.66,1.15,1,.8.7,1.18,1.07c.6.56,1.2,1.15,1.78,1.74.2.19.4.39.6.61,1,1,2,2.09,3,3.18.2.23.4.44.58.68,7,8,13.17,17.13,13.8,18.59C267.21,394.34,266.09,410,266.09,410Z" style="fill:#263238"></path><path d="M266.09,410H72.8s.29-1,.83-2.84c.12-.4.24-.83.38-1.31.56-1.88,1.29-4.32,2.15-7.11q.65-2.1,1.38-4.44c.25-.77.51-1.57.76-2.38l1.19-3.7.42-1.25c2-5.92,4.13-12.19,6.29-17.73.61-1.59,1.24-3.13,1.86-4.58.46-1.09.92-2.13,1.36-3.11s.91-1.91,1.34-2.79c.29-.57.58-1.11.86-1.63a14.63,14.63,0,0,1,3.53-4.66c16.35-11,29.52-24.64,38.91-31.11,11.11-7.66,24.13-10.36,36.33-10.71A200.4,200.4,0,0,1,195,312.57l1.58.26a11.24,11.24,0,0,1,1.24.31,12.55,12.55,0,0,1,2.36,1c.23.13.48.25.71.39a23.09,23.09,0,0,1,3.5,2.6c.64.59,1.3,1.21,2,1.87a.35.35,0,0,0,.09.11c.46.48.91,1,1.35,1.49a66.9,66.9,0,0,1,5.22,6.88c.85,1.25,1.67,2.54,2.5,3.84.39.61.75,1.22,1.14,1.83l1.3,2.16c.42.7.83,1.38,1.23,2.07.22.36.43.74.66,1.11q1.5,2.55,2.92,5a1,1,0,0,0,.15.25c.32.59.66,1.16,1,1.73l.18.3c.59,1,1.17,2,1.75,2.94.39.64.75,1.25,1.14,1.84.93,1.48,1.86,2.88,2.75,4.13.35.48.7,1,1.06,1.41a.83.83,0,0,0,.12.16c.29.4.6.75.9,1.11l.1.11a12.46,12.46,0,0,0,.92,1,6.08,6.08,0,0,0,.53.5,11.62,11.62,0,0,0,1.4,1.09,2.75,2.75,0,0,0,.46.27c.17.09.34.16.51.23a2.32,2.32,0,0,0,.37.13,1.75,1.75,0,0,0,.55.12,13,13,0,0,1,5.09,2.35l1.13.82c.38.28.75.59,1.15.91s.76.66,1.15,1,.8.7,1.18,1.07c.6.56,1.2,1.15,1.78,1.74.2.19.4.39.6.61,1,1,2,2.09,3,3.18.2.23.4.44.58.68,7,8,13.17,17.13,13.8,18.59C267.21,394.34,266.09,410,266.09,410Z" style="fill:#fff;opacity:0.1"></path><path d="M235.25,360.31a112.07,112.07,0,0,0-14.58-.05,195.66,195.66,0,0,1-27-.22c-4.09-.18.41-9.85,7.75-13.69A111.92,111.92,0,0,0,218,335.29C224.58,346.32,230.39,357.78,235.25,360.31Z" style="opacity:0.2"></path><path d="M257.72,410H90.41c8.54-7,28.64-22.66,38.94-23,13.3-.43,26.49,13.88,42.05,7.38s37.37-15.67,47.92-15.3C239.16,379.76,253.85,395.93,257.72,410Z" style="opacity:0.2"></path><path d="M432.8,388.21s-23.36-32.79-29.2-36.38-27.84,2.24-42.67,2.24S337.58,375,328.6,378.77s-39.53,31.44-39.53,31.44H440.88Z" style="fill:#fff;opacity:0.5"></path><path d="M432.8,388.21s-23.36-32.79-29.2-36.38-27.84,2.24-42.67,2.24S337.58,375,328.6,378.77s-39.53,31.44-39.53,31.44H440.88Z" style="fill:#263238"></path><path d="M432.8,388.21s-23.36-32.79-29.2-36.38-27.84,2.24-42.67,2.24S337.58,375,328.6,378.77s-39.53,31.44-39.53,31.44H440.88Z" style="fill:#fff;opacity:0.1"></path><path d="M440.88,410.21H289.07s1-.89,2.64-2.37c7.71-1,25.06-3.53,29.75-6.38,6.08-3.71,35.36-7.41,50.18-5.06s14.14-20.54,21.56-26.61c4.52-3.7,7.38-12.39,8.9-18.58a5.73,5.73,0,0,1,1.5.62c5.85,3.59,29.2,36.38,29.2,36.38Z" style="opacity:0.2"></path></g><g id="freepik--speech-bubble--inject-29"><path d="M183.67,136.24v16.44a5.81,5.81,0,0,1-5.82,5.81H159a5.84,5.84,0,0,1-2.73-.68l-4.62,2.74,2.26-5.07a5.77,5.77,0,0,1-.72-2.8V136.24a5.81,5.81,0,0,1,5.81-5.81h18.88A5.81,5.81,0,0,1,183.67,136.24Z" style="fill:#407BFF"></path><path d="M183.67,136.24v16.44a5.81,5.81,0,0,1-5.82,5.81H159a5.84,5.84,0,0,1-2.73-.68l-4.62,2.74,2.26-5.07a5.77,5.77,0,0,1-.72-2.8V136.24a5.81,5.81,0,0,1,5.81-5.81h18.88A5.81,5.81,0,0,1,183.67,136.24Z" style="fill:#fff;opacity:0.7000000000000001"></path><path d="M175.88,139.88l-11,11-.12.11a1.18,1.18,0,0,1-.5.33.92.92,0,0,1-.28.09,1.27,1.27,0,0,1-.28,0,1.38,1.38,0,0,1-.56-.12,1.11,1.11,0,0,1-.27-.13,1.43,1.43,0,0,1-.23-.2l-3.23-3.22a1.48,1.48,0,0,1-.45-1,1.51,1.51,0,0,1,1.52-1.52,1.47,1.47,0,0,1,1.06.44l2.16,2.16,10-10a1.52,1.52,0,0,1,2.14,0A1.52,1.52,0,0,1,175.88,139.88Z" style="fill:#407BFF"></path></g><g id="freepik--Character--inject-29"><polygon points="133.12 427.03 133.08 441.54 138.94 442.02 141.85 428.44 133.12 427.03" style="fill:#ff8b7b"></polygon><path d="M137.24,440.65s1.86-3.53,2.94-3.15,1.52,4.67,1.52,4.67,5.91,2,7.56,2.11,3,1,3.18,4.27l-20.17-.06s.15-7.28.19-8.52,1.82.31,1.82.31Z" style="fill:#263238"></path><path d="M132.51,442.73a3,3,0,0,1,1.08,4.26.15.15,0,1,0,.26.16,3.32,3.32,0,0,0-1.15-4.69c-.16-.11-.36.17-.19.27Z" style="fill:#fff"></path><path d="M132.46,447.33l15.83.21,3.68,0c.2,0,.25-.32,0-.32l-15.82-.21-3.68-.05c-.21,0-.25.32,0,.32Z" style="fill:#fff"></path><path d="M140.83,443.44a2,2,0,0,1,2.94-.51c.15.12.35-.16.2-.28a2.4,2.4,0,0,0-3.4.63c-.14.17.12.33.26.16Z" style="fill:#fff"></path><path d="M142.5,444a2,2,0,0,1,2.94-.51c.15.12.35-.16.2-.28a2.4,2.4,0,0,0-3.4.63c-.14.17.11.33.26.16Z" style="fill:#fff"></path><path d="M144.22,444.5a2,2,0,0,1,2.95-.51c.15.12.34-.16.19-.28a2.39,2.39,0,0,0-3.39.63c-.15.17.11.33.25.16Z" style="fill:#fff"></path><path d="M122.69,281.64c.29,2.58.32,10.54.88,14.79,1.05,8.1,2.44,18.6,3.65,29.12,1.41,12.18,2.58,24.4,2.7,32.91.3,21.85,2.65,74.56,2.65,74.56l9.46-.45s8.95-53,10-75.18c.86-18.42-2.35-65.6-3.19-77Z" style="fill:#407BFF"></path><path d="M123.57,296.43c1.05,8.1,2.44,18.6,3.65,29.12,4-14-1.34-34.63-1.34-34.63Z" style="opacity:0.2"></path><polygon points="131.77 435.42 142.88 434.89 143.52 431.31 131.31 431.75 131.77 435.42" style="fill:#263238"></polygon><polygon points="83.11 424.86 81.59 439.3 87.38 440.38 91.65 427.16 83.11 424.86" style="fill:#ff8b7b"></polygon><path d="M85.82,438.84S88,435.51,89.07,436s1,4.81,1,4.81,5.67,2.58,7.3,2.86,2.86,1.34,2.74,4.57l-20.07-2.11s.9-7.23,1.07-8.46,1.77.5,1.77.5Z" style="fill:#263238"></path><path d="M80.9,440.42a3,3,0,0,1,.64,4.35.15.15,0,1,0,.24.18,3.31,3.31,0,0,0-.66-4.78c-.15-.12-.38.13-.22.25Z" style="fill:#fff"></path><path d="M80.39,445l15.72,1.82,3.65.42c.21,0,.28-.29.08-.31L84.12,445.1l-3.66-.42c-.2,0-.28.29-.07.32Z" style="fill:#fff"></path><path d="M89.1,442a2,2,0,0,1,3-.21c.14.13.36-.12.23-.26a2.4,2.4,0,0,0-3.45.28c-.15.15.09.34.24.19Z" style="fill:#fff"></path><path d="M90.71,442.67a2.06,2.06,0,0,1,3-.21c.14.14.36-.11.23-.25a2.4,2.4,0,0,0-3.45.28c-.16.15.08.33.24.18Z" style="fill:#fff"></path><path d="M92.37,443.38a2,2,0,0,1,3-.21c.14.13.36-.12.23-.26a2.39,2.39,0,0,0-3.44.28c-.16.15.08.34.23.19Z" style="fill:#fff"></path><path d="M113.45,361.17c-4.82,21.7-22.24,69-22.24,69L81.81,429s9.52-47.86,11.85-69.59c1.24-11.57,4.38-64.62,5.18-77.87l31.43,1.3c-1.12,11.38-12.83,60.33-16.82,78.34Z" style="fill:#407BFF"></path><polygon points="80.95 429.22 91.98 430.6 93.23 427.18 80.93 425.54 80.95 429.22" style="fill:#263238"></polygon><path d="M97,281.61C97,283,99.91,286,101.29,286l48.63-1.51c1.46,0,3.12-1.09,3-2.54-1.33-17.2-8.21-76.26-9.74-79.94-1.89-4.51-11.21-5.71-15.26-5.89a143.36,143.36,0,0,0-19.15.89c-3.1.3-5.93.71-8.27,1.12-3.56.61-2.87,4.08-2.74,7.69.2,5.64,0,13.21.6,19.7,0,.33.07.64.1,1,.22,2.24.42,4.45.54,6.64,0,.43.06.88.07,1.31C99.94,256.7,97.57,267.76,97,281.61Z" style="fill:#fff"></path><path d="M116.63,286.28c-6.48.71-23.68,1.14-23.81-1.57-.22-4.52,4.45-36.1,4.73-42.39,0-1,.07-2.26.09-3.82,0-2.88,0-6.63,0-10.66-.12-12.54-.47-27.77-.47-27.77s.22-3.46,15.36-3.45c0,0,4.65,18.18,5.57,34.34S118.82,286,116.63,286.28Z" style="fill:#263238"></path><path d="M127.93,196.07s7.51,17.3,8.06,44,1.17,46.17,1.17,46.17,16,.22,17.27-2.23c.7-1.34-2.28-24.52-4-38.11-1.95-15.47-5.59-40.86-6.64-43.88C142,196.82,127.93,196.07,127.93,196.07Z" style="fill:#263238"></path><path d="M105.24,216.72l-7.6,21.78c0-2.88,0-6.63,0-10.66Z" style="opacity:0.2"></path><path d="M115.1,176.17s-4-2-3.8-3.8,1.24-1.29,1.24-1.29-2.37-4.23-.24-5.06,2.31-.11,2.31-.11-1-3.49.67-4.62c1.27-.87,1.89.73,1.89.73s2.36-4.58,5.12-4.22a2.09,2.09,0,0,1,1.75,2.51s5.54-2.44,8.4-.91.15,3,.15,3,7.62-.47,7.93,1.59-2.42,3.07-2.42,3.07,3.43,1.36,2.4,3.94a1.88,1.88,0,0,1-3.07,1s2.66,4,.52,4.77-4.84-3.62-4.84-3.62Z" style="fill:#263238"></path><path d="M126.86,162.7a13.32,13.32,0,0,0-10.38,2.19c-1.94,1.41-3.52,3.37-3.1,5.89a143.31,143.31,0,0,0,4.11,15.47L136,173.72s2.66-3.61-2-8C132.49,164.28,129.53,163.22,126.86,162.7Z" style="fill:#263238"></path><path d="M126.86,199.49a12.05,12.05,0,0,1-.32-1.63,11,11,0,0,1-.05-2.07l.76-3.44a.64.64,0,0,1,0-.07h0l-5.81-5.78-4-4c.43,4.37-.65,9.8-2,14.45C115.79,199,125.63,204,126.86,199.49Z" style="fill:#ff8b7b"></path><path d="M124.23,201.31c-2.45-1.29-5.16-4.75-7.85-8a4.3,4.3,0,0,0-3,3.66l2.71,7.76Z" style="fill:#fff"></path><path d="M126.49,195.79a10.52,10.52,0,0,1-2.26,5.52l4.76,3.27,1-5.53A13.21,13.21,0,0,0,126.49,195.79Z" style="fill:#fff"></path><g style="opacity:0.2"><path d="M127.25,192.35l-.76,3.44c-2.14-.87-4.43-2.85-5-5.07-.42-1.6.24-3.14.89-3.25Z"></path></g><path d="M135.46,184.86c-.16.75-.36,1.49-.56,2.22-1.86,6.44-9.68,7.34-14.75,2.86,0,0,0,0,0,0a12.32,12.32,0,0,1-1.28-1.32c-3.27-4-2.62-7.12-2.44-14.26a9.73,9.73,0,0,1,14.2-8.5C136.7,169,137.16,177.37,135.46,184.86Z" style="fill:#ff8b7b"></path><path d="M128,177.17c0,.56.21,1,.57,1.07s.71-.39.75-1-.2-1-.57-1.07-.7.39-.75.95" style="fill:#263238"></path><path d="M131,186l.19,0a.2.2,0,0,0,.18-.24.22.22,0,0,0-.24-.18,3.06,3.06,0,0,1-3.47-2.76.2.2,0,0,0-.24-.17.21.21,0,0,0-.18.24A3.5,3.5,0,0,0,131,186Z" style="fill:#263238"></path><path d="M116.36,175s2.15,0,2.32,1.84,0,2.09,0,2.09h.27a1.79,1.79,0,0,0,1.79-2.15c-.28-1.5-.37-3.21.67-3.2,1.85,0-1-3.91,1.47-4.76,2.69-.9,9.71-1.56,12.65,2.62a10.92,10.92,0,0,0-4.4-6.35c-3.49-2.14-10.32-2.32-12.93,1.14S116.36,175,116.36,175Z" style="fill:#263238"></path><path d="M113,178.81a6.76,6.76,0,0,0,2.88,4.3c2,1.3,3.7-.3,3.75-2.56,0-2-1-5.14-3.23-5.54a3,3,0,0,0-3.4,3.8" style="fill:#ff8b7b"></path><path d="M133.82,177.56c0,.56.21,1,.58,1.07s.7-.4.75-.95-.21-1-.58-1.08-.7.4-.75,1" style="fill:#263238"></path><path d="M135.85,176.19a.27.27,0,0,1-.22-.18,1.48,1.48,0,0,0-.75-.89,1.63,1.63,0,0,0-1.16,0,.29.29,0,0,1-.37-.16.28.28,0,0,1,.16-.37,2.22,2.22,0,0,1,1.6,0,2,2,0,0,1,1,1.21.28.28,0,0,1-.16.36A.26.26,0,0,1,135.85,176.19Z" style="fill:#263238"></path><path d="M126.57,175.75a.28.28,0,0,1-.29-.38,2.22,2.22,0,0,1,1.1-1.17,2,2,0,0,1,1.6.06.28.28,0,0,1,.16.37.29.29,0,0,1-.37.15,1.48,1.48,0,0,0-1.16-.06,1.68,1.68,0,0,0-.8.85A.28.28,0,0,1,126.57,175.75Z" style="fill:#263238"></path><path d="M131.2,178.16a41,41,0,0,1,2,4.65c.12.65-2,.74-2,.74Z" style="fill:#ff5652"></path><path d="M126.83,195.1h0Z"></path><path d="M116.38,193.35s-5.35-.88-6.3,3.59l.71,14.55,3.23,3.66-2.29,2.52.84,18.71L118.3,238c-.14-5.21.26-14.59-1.71-28.34A66.69,66.69,0,0,1,116.38,193.35Z" style="fill:#263238"></path><path d="M116.38,193.35s-5.35-.88-6.3,3.59l.71,14.55,3.23,3.66-2.29,2.52.84,18.71L118.3,238c-.14-5.21.26-14.59-1.71-28.34A66.69,66.69,0,0,1,116.38,193.35Z" style="fill:#fff;opacity:0.2"></path><path d="M126.49,195.79s2.61,2.41,4.13,8.12,5.23,30.83,5.31,34l5.38-4.45-3.23-19.93-3.41-1.89,2.6-3.79s-3-9.08-4.75-11.34-5.61-2.69-5.61-2.69Z" style="fill:#263238"></path><path d="M126.49,195.79s2.61,2.41,4.13,8.12,5.23,30.83,5.31,34l5.38-4.45-3.23-19.93-3.41-1.89,2.6-3.79s-3-9.08-4.75-11.34-5.61-2.69-5.61-2.69Z" style="fill:#fff;opacity:0.2"></path><path d="M95.17,202.12c-3,5.75-5.7,11.61-8.38,17.49-1.35,2.93-2.65,5.89-4,8.83l-1.94,4.41-1,2.15-.48,1-.23.49c-.08.17-.1.25-.16.38l-.12.35-.09.28c-.06.2-.11.37-.15.52l-.12.45c-.26,1.14-.39,2-.52,2.94s-.23,1.76-.31,2.61c-.18,1.7-.33,3.36-.43,5-.21,3.31-.37,6.59-.45,9.86-.19,6.55-.23,13.06,0,19.62a3.67,3.67,0,0,0,7.27.58v0c1.26-6.35,2.37-12.74,3.49-19.08.58-3.16,1.11-6.32,1.71-9.43.31-1.56.6-3.1.92-4.6.16-.75.33-1.48.5-2.18s.36-1.37.52-1.8l.06-.13,0-.06h0v.07l0,.1-.09.22,0-.05.08-.15.18-.3.34-.61,1.22-2.19,2.35-4.3c1.52-2.88,3-5.74,4.52-8.63,3-5.78,5.84-11.58,8.5-17.5a7.37,7.37,0,0,0-13.27-6.4Z" style="fill:#263238"></path><path d="M69.55,297.13l-.29-6a.37.37,0,0,1,.36-.39l3.25-.16-.05-1-3.25.16a1.34,1.34,0,0,0-1.27,1.41l.29,6Z" style="fill:#263238"></path><path d="M91.72,290.07l.29,6,1-.05-.28-6a1.36,1.36,0,0,0-1.41-1.28L88,288.9l0,1,3.25-.16A.38.38,0,0,1,91.72,290.07Z" style="fill:#263238"></path><path d="M105.83,297.92l1.46,30.18a2.55,2.55,0,0,1-2.42,2.66l-43.56,2.11a2.55,2.55,0,0,1-2.66-2.42l-1.46-30.18a2.55,2.55,0,0,1,2.42-2.66l43.56-2.1A2.54,2.54,0,0,1,105.83,297.92Z" style="fill:#263238"></path><g style="opacity:0.5"><path d="M105.83,297.92l1.46,30.18a2.55,2.55,0,0,1-2.42,2.66l-43.56,2.11a2.55,2.55,0,0,1-2.66-2.42l-1.46-30.18a2.55,2.55,0,0,1,2.42-2.66l43.56-2.1A2.54,2.54,0,0,1,105.83,297.92Z" style="fill:#fff"></path></g><rect x="98.23" y="295.72" width="1.93" height="35.29" transform="translate(-15 5.15) rotate(-2.76)" style="fill:#263238"></rect><rect x="64.31" y="297.36" width="1.93" height="35.29" transform="translate(-15.12 3.51) rotate(-2.76)" style="fill:#263238"></rect><path d="M83.53,280.44s3.45,6.88,3.18,8.49-2.52-1.23-2.52-1.23Z" style="fill:#ff8b7b"></path><rect x="71.49" y="288.15" width="17.57" height="3.22" transform="translate(-13.88 4.21) rotate(-2.76)" style="fill:#263238"></rect><rect x="71.49" y="288.15" width="17.57" height="3.22" transform="translate(-13.88 4.21) rotate(-2.76)" style="fill:#fff;opacity:0.30000000000000004"></rect><path d="M77.08,279.69,75,287c-.39,2.08,6.36,4.75,8.83,2.86,2-1.49-.2-9.72-.2-9.72A7,7,0,0,0,77.08,279.69Z" style="fill:#ff8b7b"></path><path d="M75,287c-.4,2.31.11,6.77,3.78,7.05A8.51,8.51,0,0,0,81.2,294a3.72,3.72,0,0,0,2.28.08c1.8-.67.9-5.25.9-5.25Z" style="fill:#ff8b7b"></path><path d="M180.29,196.61a6.06,6.06,0,0,1-.07.83,7.83,7.83,0,0,1-.19.94,7.92,7.92,0,0,1-.3.81c-.11.24-.23.48-.36.71a10.3,10.3,0,0,1-.71,1c-.21.23-.44.48-.66.68s-.38.33-.57.49l-.51.37a17,17,0,0,1-3.12,1.63c-.91.37-1.75.66-2.57.92-1.64.53-3.21,1-4.78,1.32-3.12.73-6.18,1.32-9.25,1.81s-6.11.92-9.17,1.27l-1.13.11c-.53.07-1.06.12-1.59.17h0q-3.21.33-6.45.52l-1.73-12.58c5.83-.68,12.54-.83,18.37-1.55,2.91-.39,5.83-.75,8.62-1.24.84-.16,1.68-.3,2.49-.46-1.86-1.82-4-3.59-6-5.37-2.27-1.89-4.58-3.79-6.92-5.66s-4.7-3.77-7-5.67l2.77-4.52a165.14,165.14,0,0,1,16.29,8.68,93.66,93.66,0,0,1,7.89,5.29,32.54,32.54,0,0,1,4,3.54,13.94,13.94,0,0,1,1.09,1.33,9.13,9.13,0,0,1,1.23,2.26A7.26,7.26,0,0,1,180.29,196.61Z" style="fill:#263238"></path><path d="M146.9,209.5c-.53.07-1.06.12-1.59.17h0l-1.05-6.26Z" style="opacity:0.2"></path><path d="M134.12,172.53a16.83,16.83,0,0,0,3.28,1.15c1.85.51,3.7.92,3.7.92s3.51,3.8,6.12,3a3.7,3.7,0,0,0,.4-.16c1.92-.95,1.64-3.71,1.57-4.28,0-.06,0-.1,0-.1-1.17-.24-2.52-.48-3.89-.68a45.21,45.21,0,0,0-8.62-.71C133.62,172,132.63,171.68,134.12,172.53Z" style="fill:#ff8b7b"></path><polygon points="121.42 202.5 125.26 209.44 126.84 203.1 124.23 201.31 121.42 202.5" style="fill:#407BFF"></polygon><polygon points="123.91 206.99 124.28 250.69 129.19 260.33 132.5 250.04 125.89 206.9 123.91 206.99" style="fill:#407BFF"></polygon></g></svg>
